<svg width="231" height="190" viewBox="0 0 231 190" fill="none" xmlns="http://www.w3.org/2000/svg">
<path d="M195.472 14.9081C147.285 19.1386 86.0956 19.1386 37.908 14.9081C37.6615 14.8865 37.4442 15.0693 37.4226 15.3165C37.4011 15.5637 37.5834 15.7816 37.8299 15.8032C86.0695 20.0383 147.311 20.0383 195.551 15.8032C195.797 15.7816 195.979 15.5637 195.958 15.3165C195.936 15.0693 195.719 14.8865 195.472 14.9081Z" fill="#DBDBDE"/>
<path fill-rule="evenodd" clip-rule="evenodd" d="M156.844 23.4059L192.766 21.0116L195.698 65.2489L159.776 67.6432L156.844 23.4059Z" fill="#EEEEEF"/>
<path fill-rule="evenodd" clip-rule="evenodd" d="M182.431 47.0929C180.122 45.5896 177.287 44.205 176.624 44.7591C175.96 45.3137 176.807 48.36 177.864 50.9087C180.206 56.5502 183.779 58.5197 186.303 56.4097C188.829 54.3003 187.542 50.4196 182.431 47.0929Z" fill="#DBDBDE"/>
<path fill-rule="evenodd" clip-rule="evenodd" d="M170.908 39.8166C173.258 41.2555 175.729 43.221 175.517 44.0605C175.305 44.9 172.2 45.4508 169.451 45.5957C163.366 45.917 160.051 43.5361 160.857 40.341C161.663 37.1464 165.708 36.6332 170.908 39.8166Z" fill="#DBDBDE"/>
<path fill-rule="evenodd" clip-rule="evenodd" d="M180.83 39.1553C178.69 40.893 176.501 43.1698 176.821 43.9735C177.143 44.7777 180.293 44.9115 183.037 44.6904C189.111 44.2012 192.082 41.4012 190.862 38.341C189.641 35.2812 185.564 35.3092 180.83 39.1553Z" fill="#DBDBDE"/>
<path fill-rule="evenodd" clip-rule="evenodd" d="M170.369 47.8968C172.46 46.1003 175.087 44.3518 175.818 44.813C176.548 45.2742 176.111 48.4061 175.4 51.0735C173.824 56.9757 170.541 59.4019 167.76 57.6457C164.98 55.8894 165.743 51.8727 170.369 47.8968Z" fill="#DBDBDE"/>
<path fill-rule="evenodd" clip-rule="evenodd" d="M172.807 38.2305C173.794 40.8078 175.276 43.5994 176.138 43.5418C176.999 43.4847 178.099 40.5213 178.738 37.8349C180.151 31.8912 178.414 28.1918 175.135 28.41C171.856 28.6289 170.622 32.5264 172.807 38.2305Z" fill="#DBDBDE"/>
<path d="M182.384 50.5424L176.518 43.931C176.354 43.7457 176.07 43.7291 175.886 43.894C175.701 44.059 175.684 44.343 175.849 44.5283L181.715 51.1397C181.879 51.3251 182.162 51.3416 182.347 51.1767C182.532 51.0117 182.549 50.7278 182.384 50.5424Z" fill="#EEEEEF"/>
<path d="M184.21 40.5259L176.017 43.8123C175.787 43.9044 175.676 44.1659 175.768 44.3963C175.859 44.6266 176.12 44.7387 176.35 44.6466L184.543 41.3602C184.773 41.268 184.884 41.0066 184.793 40.7762C184.701 40.5458 184.44 40.4338 184.21 40.5259Z" fill="#EEEEEF"/>
<path d="M175.151 35.4297L175.737 44.259C175.753 44.5066 175.967 44.6939 176.214 44.6775C176.46 44.661 176.647 44.447 176.631 44.1994L176.045 35.37C176.029 35.1225 175.816 34.9351 175.569 34.9516C175.322 34.968 175.135 35.1821 175.151 35.4297Z" fill="#EEEEEF"/>
<path d="M167.519 42.4947L176.074 44.6651C176.314 44.7259 176.557 44.5803 176.618 44.3397C176.679 44.0992 176.533 43.8548 176.293 43.794L167.739 41.6236C167.499 41.5627 167.255 41.7084 167.194 41.9489C167.134 42.1895 167.279 42.4338 167.519 42.4947Z" fill="#EEEEEF"/>
<path d="M171.872 51.9647L176.563 44.4679C176.694 44.2577 176.631 43.9804 176.421 43.8485C176.212 43.7167 175.935 43.7802 175.804 43.9903L171.113 51.4871C170.982 51.6973 171.045 51.9746 171.255 52.1065C171.464 52.2383 171.741 52.1748 171.872 51.9647Z" fill="#EEEEEF"/>
<path fill-rule="evenodd" clip-rule="evenodd" d="M178.924 44.0468C178.823 42.5296 177.515 41.3811 176.002 41.4819C174.489 41.5832 173.344 42.8945 173.445 44.4117C173.545 45.9295 174.853 47.078 176.366 46.9772C177.879 46.8765 179.025 45.5646 178.924 44.0468Z" fill="#EEEEEF"/>
<path fill-rule="evenodd" clip-rule="evenodd" d="M177.942 44.1125C177.877 43.1387 177.038 42.4016 176.067 42.4671C175.096 42.5314 174.362 43.3732 174.426 44.347C174.491 45.3202 175.33 46.0573 176.301 45.9924C177.272 45.928 178.006 45.0857 177.942 44.1125Z" fill="#DBDBDE"/>
<path fill-rule="evenodd" clip-rule="evenodd" d="M177.81 28.3575L175.005 25.8955L172.55 28.7084L175.355 31.1704L177.81 28.3575Z" fill="#EEEEEF"/>
<path fill-rule="evenodd" clip-rule="evenodd" d="M191.788 41.1135L193.308 37.7001L189.905 36.1755L188.384 39.589L191.788 41.1135Z" fill="#EEEEEF"/>
<path fill-rule="evenodd" clip-rule="evenodd" d="M184.203 58.0102L187.916 58.3404L188.245 54.6164L184.532 54.2867L184.203 58.0102Z" fill="#EEEEEF"/>
<path fill-rule="evenodd" clip-rule="evenodd" d="M165.593 56.136L166.427 59.78L170.061 58.9433L169.226 55.2993L165.593 56.136Z" fill="#EEEEEF"/>
<path fill-rule="evenodd" clip-rule="evenodd" d="M161.619 37.8075L158.422 39.73L160.338 42.9363L163.536 41.0138L161.619 37.8075Z" fill="#EEEEEF"/>
<path fill-rule="evenodd" clip-rule="evenodd" d="M112.958 24.1436L148.955 23.5728L149.653 67.903L113.657 68.4733L112.958 24.1436Z" fill="#EEEEEF"/>
<path fill-rule="evenodd" clip-rule="evenodd" d="M137.319 49.0975C135.089 47.4789 132.327 45.9527 131.636 46.4727C130.946 46.9926 131.638 50.0775 132.566 52.6771C134.619 58.43 138.089 60.578 140.717 58.599C143.345 56.6194 142.256 52.6788 137.319 49.0975Z" fill="#DBDBDE"/>
<path fill-rule="evenodd" clip-rule="evenodd" d="M126.178 41.247C128.452 42.8029 130.82 44.891 130.566 45.7188C130.313 46.5465 127.184 46.9394 124.43 46.945C118.338 46.9568 115.147 44.4108 116.113 41.261C117.079 38.1106 121.144 37.8034 126.178 41.247Z" fill="#DBDBDE"/>
<path fill-rule="evenodd" clip-rule="evenodd" d="M136.119 41.089C133.895 42.7165 131.594 44.8785 131.874 45.6978C132.153 46.5172 135.293 46.8105 138.045 46.7288C144.135 46.548 147.244 43.9019 146.18 40.7845C145.115 37.6666 141.041 37.4875 136.119 41.089Z" fill="#DBDBDE"/>
<path fill-rule="evenodd" clip-rule="evenodd" d="M125.231 49.2894C127.41 47.6003 130.122 45.9879 130.828 46.4854C131.535 46.983 130.94 50.0892 130.095 52.7162C128.224 58.5318 124.824 60.7883 122.134 58.8933C119.446 56.9983 120.41 53.0257 125.231 49.2894Z" fill="#DBDBDE"/>
<path fill-rule="evenodd" clip-rule="evenodd" d="M128.154 39.7587C129.011 42.3824 130.35 45.2457 131.213 45.2317C132.077 45.2182 133.326 42.3141 134.098 39.6641C135.808 33.7999 134.26 30.0171 130.974 30.0691C127.688 30.1206 126.26 33.951 128.154 39.7587Z" fill="#DBDBDE"/>
<path d="M137.098 52.54L131.574 45.6398C131.419 45.4463 131.137 45.4154 130.944 45.5708C130.751 45.7261 130.72 46.0089 130.875 46.2024L136.399 53.1025C136.554 53.296 136.836 53.3269 137.029 53.1716C137.222 53.0162 137.253 52.7335 137.098 52.54Z" fill="#EEEEEF"/>
<path d="M139.428 42.6287L131.079 45.4959C130.845 45.5763 130.72 45.8318 130.801 46.0665C130.881 46.3013 131.136 46.4264 131.37 46.346L139.718 43.4788C139.952 43.3984 140.077 43.1429 139.997 42.9082C139.916 42.6735 139.662 42.5483 139.428 42.6287Z" fill="#EEEEEF"/>
<path d="M130.637 37.08L130.776 45.9284C130.78 46.1765 130.984 46.3744 131.231 46.3705C131.479 46.3666 131.676 46.1623 131.672 45.9142L131.533 37.0658C131.529 36.8177 131.325 36.6198 131.078 36.6237C130.83 36.6276 130.633 36.8319 130.637 37.08Z" fill="#EEEEEF"/>
<path d="M122.657 43.7494L131.092 46.3502C131.329 46.4231 131.579 46.29 131.652 46.0528C131.725 45.8156 131.592 45.5643 131.355 45.4913L122.921 42.8906C122.684 42.8176 122.433 42.9508 122.361 43.188C122.288 43.4251 122.421 43.6765 122.657 43.7494Z" fill="#EEEEEF"/>
<path d="M126.529 53.4277L131.591 46.1788C131.733 45.9756 131.683 45.6954 131.481 45.5531C131.278 45.4108 130.999 45.4602 130.857 45.6634L125.795 52.9122C125.653 53.1155 125.702 53.3956 125.905 53.538C126.108 53.6803 126.387 53.6309 126.529 53.4277Z" fill="#EEEEEF"/>
<path fill-rule="evenodd" clip-rule="evenodd" d="M133.969 45.8779C133.945 44.3573 132.696 43.1439 131.18 43.168C129.664 43.192 128.454 44.444 128.478 45.9646C128.502 47.4852 129.75 48.6986 131.267 48.6745C132.783 48.6505 133.993 47.3985 133.969 45.8779Z" fill="#EEEEEF"/>
<path fill-rule="evenodd" clip-rule="evenodd" d="M132.985 45.8932C132.97 44.9177 132.169 44.1392 131.196 44.1549C130.223 44.17 129.447 44.9731 129.462 45.9492C129.477 46.9253 130.278 47.7032 131.252 47.6881C132.225 47.673 133 46.8687 132.985 45.8932Z" fill="#DBDBDE"/>
<path fill-rule="evenodd" clip-rule="evenodd" d="M133.649 30.1519L130.971 27.5511L128.378 30.2353L131.055 32.8372L133.649 30.1519Z" fill="#EEEEEF"/>
<path fill-rule="evenodd" clip-rule="evenodd" d="M146.965 43.6004L148.655 40.2682L145.332 38.5735L143.643 41.9052L146.965 43.6004Z" fill="#EEEEEF"/>
<path fill-rule="evenodd" clip-rule="evenodd" d="M138.538 60.091L142.23 60.6087L142.747 56.9065L139.054 56.3888L138.538 60.091Z" fill="#EEEEEF"/>
<path fill-rule="evenodd" clip-rule="evenodd" d="M120.046 57.2756L120.696 60.9571L124.367 60.3051L123.717 56.6241L120.046 57.2756Z" fill="#EEEEEF"/>
<path fill-rule="evenodd" clip-rule="evenodd" d="M117.001 38.7694L113.711 40.5268L115.463 43.826L118.754 42.0692L117.001 38.7694Z" fill="#EEEEEF"/>
<path fill-rule="evenodd" clip-rule="evenodd" d="M68.5138 23.097L104.503 24.0384L103.35 68.3586L67.3613 67.4167L68.5138 23.097Z" fill="#EEEEEF"/>
<path fill-rule="evenodd" clip-rule="evenodd" d="M91.812 49.0516C89.6511 47.3407 86.9561 45.6998 86.244 46.1906C85.5324 46.6809 86.095 49.7926 86.9137 52.4287C88.7252 58.2627 92.1027 60.5545 94.8105 58.6875C97.5189 56.8204 96.5947 52.8378 91.812 49.0516Z" fill="#DBDBDE"/>
<path fill-rule="evenodd" clip-rule="evenodd" d="M81.008 40.7398C83.2157 42.3902 85.4944 44.5757 85.2058 45.3923C84.9179 46.2083 81.7753 46.4697 79.024 46.3594C72.9365 46.1154 69.8547 43.4379 70.9508 40.3318C72.048 37.225 76.1231 37.0885 81.008 40.7398Z" fill="#DBDBDE"/>
<path fill-rule="evenodd" clip-rule="evenodd" d="M90.9475 41C88.6571 42.5323 86.268 44.5964 86.5135 45.4264C86.7585 46.2569 89.8832 46.6817 92.6362 46.7159C98.7288 46.7909 101.946 44.2779 101.012 41.1181C100.078 37.9576 96.0154 37.6084 90.9475 41Z" fill="#DBDBDE"/>
<path fill-rule="evenodd" clip-rule="evenodd" d="M79.7275 48.7357C81.9743 47.1401 84.7513 45.6424 85.4361 46.1691C86.122 46.6963 85.3982 49.7739 84.4433 52.3641C82.3309 58.0956 78.8396 60.2073 76.2322 58.2014C73.6243 56.195 74.7544 52.2667 79.7275 48.7357Z" fill="#DBDBDE"/>
<path fill-rule="evenodd" clip-rule="evenodd" d="M83.0448 39.3362C83.7904 41.9941 85.0092 44.9105 85.872 44.9329C86.7354 44.9559 88.1038 42.1066 88.9867 39.4912C90.9405 33.7043 89.552 29.8593 86.2666 29.7732C82.9817 29.6875 81.3945 33.4541 83.0448 39.3362Z" fill="#DBDBDE"/>
<path d="M91.447 52.4822L86.215 45.3559C86.0683 45.1561 85.7879 45.1134 85.5887 45.2605C85.3894 45.4076 85.3468 45.6888 85.4935 45.8887L90.7255 53.0149C90.8722 53.2147 91.1527 53.2574 91.3519 53.1103C91.5511 52.9632 91.5937 52.682 91.447 52.4822Z" fill="#EEEEEF"/>
<path d="M94.1876 42.6772L85.7271 45.1912C85.4899 45.2617 85.3545 45.5117 85.4248 45.7496C85.4951 45.9875 85.7444 46.1232 85.9816 46.0527L94.4421 43.5387C94.6794 43.4682 94.8147 43.2182 94.7444 42.9803C94.6741 42.7424 94.4248 42.6067 94.1876 42.6772Z" fill="#EEEEEF"/>
<path d="M85.6369 36.7638L85.4064 45.6105C85.3999 45.8586 85.5952 46.0649 85.8426 46.0714C86.0899 46.0779 86.2956 45.882 86.3021 45.634L86.5326 36.7873C86.5391 36.5393 86.3438 36.3329 86.0964 36.3265C85.8491 36.32 85.6434 36.5158 85.6369 36.7638Z" fill="#EEEEEF"/>
<path d="M77.3865 43.0925L85.7047 46.0453C85.9379 46.1281 86.194 46.0056 86.2765 45.7717C86.3591 45.5378 86.2369 45.2811 86.0037 45.1983L77.6855 42.2455C77.4523 42.1627 77.1963 42.2852 77.1137 42.5191C77.0311 42.753 77.1533 43.0097 77.3865 43.0925Z" fill="#EEEEEF"/>
<path d="M80.8498 52.9252L86.2096 45.8947C86.3599 45.6975 86.3224 45.4156 86.1258 45.2649C85.9293 45.1142 85.6481 45.1518 85.4978 45.3489L80.138 52.3795C79.9877 52.5766 80.0253 52.8586 80.2218 53.0093C80.4184 53.16 80.6995 53.1223 80.8498 52.9252Z" fill="#EEEEEF"/>
<path fill-rule="evenodd" clip-rule="evenodd" d="M88.5992 45.6943C88.6383 44.1736 87.4417 42.9088 85.926 42.8696C84.4097 42.8299 83.1484 44.0298 83.1094 45.5504C83.0697 47.071 84.2663 48.3353 85.7826 48.3751C87.2989 48.4148 88.5596 47.2143 88.5992 45.6943Z" fill="#EEEEEF"/>
<path fill-rule="evenodd" clip-rule="evenodd" d="M87.616 45.6685C87.6416 44.693 86.8732 43.8815 85.901 43.8563C84.9283 43.8306 84.1185 44.6007 84.0934 45.5762C84.0683 46.5517 84.8362 47.3632 85.8089 47.3884C86.7816 47.4142 87.5903 46.644 87.616 45.6685Z" fill="#DBDBDE"/>
<path fill-rule="evenodd" clip-rule="evenodd" d="M88.936 29.9688L86.3694 27.2572L83.666 29.8311L86.2321 32.5427L88.936 29.9688Z" fill="#EEEEEF"/>
<path fill-rule="evenodd" clip-rule="evenodd" d="M101.678 43.9644L103.507 40.7065L100.257 38.873L98.4297 42.1314L101.678 43.9644Z" fill="#EEEEEF"/>
<path fill-rule="evenodd" clip-rule="evenodd" d="M92.5703 60.0865L96.2375 60.7587L96.9077 57.0811L93.2406 56.4089L92.5703 60.0865Z" fill="#EEEEEF"/>
<path fill-rule="evenodd" clip-rule="evenodd" d="M74.2129 56.4974L74.7085 60.2029L78.4035 59.7054L77.9074 56.0004L74.2129 56.4974Z" fill="#EEEEEF"/>
<path fill-rule="evenodd" clip-rule="evenodd" d="M71.9438 37.879L68.583 39.497L70.1959 42.8674L73.5572 41.2494L71.9438 37.879Z" fill="#EEEEEF"/>
<path fill-rule="evenodd" clip-rule="evenodd" d="M72.5588 17.2326L68.6684 17.1307L68.333 30.0311L72.2228 30.133L72.5588 17.2326Z" fill="#EEEEEF"/>
<path fill-rule="evenodd" clip-rule="evenodd" d="M104.658 18.0721L100.767 17.9702L100.433 30.8706L104.322 30.9724L104.658 18.0721Z" fill="#EEEEEF"/>
<path fill-rule="evenodd" clip-rule="evenodd" d="M116.754 18.1147L112.863 18.1763L113.067 31.0795L116.957 31.0179L116.754 18.1147Z" fill="#EEEEEF"/>
<path fill-rule="evenodd" clip-rule="evenodd" d="M148.86 17.6058L144.969 17.6674L145.172 30.5706L149.063 30.509L148.86 17.6058Z" fill="#EEEEEF"/>
<path fill-rule="evenodd" clip-rule="evenodd" d="M160.332 17.1921L156.449 17.4507L157.303 30.327L161.185 30.0684L160.332 17.1921Z" fill="#EEEEEF"/>
<path fill-rule="evenodd" clip-rule="evenodd" d="M192.37 15.0562L188.487 15.3153L189.341 28.1916L193.224 27.9325L192.37 15.0562Z" fill="#EEEEEF"/>
<path fill-rule="evenodd" clip-rule="evenodd" d="M110.131 69.2829C109.045 68.003 107.419 67.3017 105.747 67.4119C101.005 67.7259 96.968 68.5525 91.8873 69.9198L88.608 70.8024C87.5449 71.0884 86.9142 72.1842 87.1994 73.2498C87.4762 74.2836 88.5154 74.916 89.5567 74.682C93.3718 73.8252 102.085 72.0404 106.291 72.5827C111.768 73.2879 112.48 72.0499 112.48 72.0499L110.131 69.2829Z" fill="#FFC07F"/>
<path fill-rule="evenodd" clip-rule="evenodd" d="M105.251 71.3685C101.629 73.8254 97.4599 77.4969 95.3392 79.4333C94.9597 79.7798 94.4797 79.9538 93.9998 79.9538C93.4863 79.9538 92.9729 79.7518 92.5822 79.36C91.8121 78.5714 91.8177 77.306 92.599 76.5337L95.0155 74.1389C97.2311 71.9444 99.2234 70.0975 101.299 68.4135C102.667 69.6503 103.989 70.6185 105.251 71.3685Z" fill="#FFC07F"/>
<path fill-rule="evenodd" clip-rule="evenodd" d="M134.223 108.967H112.496C111.334 107.77 110.349 106.358 109.592 104.759L100.618 85.7804L115.742 78.5836L122.773 93.4534C123.756 88.6912 124.833 83.5535 125.932 78.4325C127.763 69.8522 134.176 62.9409 142.625 60.6457C144.154 60.2321 145.717 59.8627 147.313 59.5325C145.415 67.4512 143.143 77.8896 141.057 87.8237C140.225 91.7694 139.416 95.6423 138.679 99.2404C138.539 99.9344 138.4 100.617 138.26 101.289C137.644 104.298 136.222 106.927 134.223 108.967Z" fill="#E9E9ED"/>
<path fill-rule="evenodd" clip-rule="evenodd" d="M100.213 74.8315L102.35 71.8877L111.148 68.8705L115.743 78.5819L100.619 85.7798L99.4279 83.2624C98.1304 80.52 98.4312 77.2857 100.213 74.8315Z" fill="#FFC07F"/>
<path fill-rule="evenodd" clip-rule="evenodd" d="M103.565 92.0052L118.69 84.8079L115.743 78.5822L100.619 85.7795L103.565 92.0052Z" fill="#F9AAAA"/>
<path fill-rule="evenodd" clip-rule="evenodd" d="M111.148 68.8703C110.429 67.3519 109.04 66.2516 107.396 65.9242C102.735 64.9946 98.6233 64.7444 93.3623 64.7444H89.967C88.8664 64.7444 87.9746 65.6393 87.9746 66.7424C87.9746 67.8125 88.814 68.694 89.8805 68.7387C93.787 68.9022 102.663 69.4422 106.586 71.0597C111.694 73.1646 112.701 72.1538 112.701 72.1538L111.148 68.8703Z" fill="#FFC07F"/>
<path fill-rule="evenodd" clip-rule="evenodd" d="M198.68 108.968H143.356C138.723 100.247 135.241 91.2215 132.79 83.45C129.501 73.0261 135.831 62.0107 146.488 59.7072C156.666 57.5077 168.184 57.112 179.533 58.4966C184.49 59.101 188.691 62.4618 190.471 67.1418C195.947 81.532 198.492 95.8248 198.68 108.968Z" fill="white"/>
<path fill-rule="evenodd" clip-rule="evenodd" d="M167.26 57.6945C161.476 57.6441 155.79 58.065 150.408 58.9599C153.622 68.3299 165.839 65.1845 167.26 57.6945Z" fill="#FFC07F"/>
<path fill-rule="evenodd" clip-rule="evenodd" d="M158.966 108.967H143.356C141.66 105.766 140.08 102.537 138.657 99.3473C136.196 93.8284 134.193 88.4165 132.792 83.4522C131.446 78.6726 130.492 73.9664 129.817 69.6066C132.881 65.3021 137.357 62.079 142.625 60.6457C144.032 60.2651 145.466 59.9237 146.928 59.6159C147.056 59.5885 147.185 59.5605 147.313 59.5381C148.005 59.3926 148.703 59.2633 149.406 59.1407C146.744 72.1189 150.74 87.6889 158.966 108.967Z" fill="#F43939"/>
<path d="M146.637 82.8794H137.089C136.841 82.8794 136.641 83.0805 136.641 83.3287C136.641 83.5768 136.841 83.7779 137.089 83.7779H146.637C146.884 83.7779 147.085 83.5768 147.085 83.3287C147.085 83.0805 146.884 82.8794 146.637 82.8794Z" fill="black"/>
<path fill-rule="evenodd" clip-rule="evenodd" d="M179.532 58.4968C175.775 58.0384 172 57.7793 168.261 57.7122C168.39 72.0996 170.623 93.7123 172.785 108.967H198.68C198.492 95.8245 195.946 81.5322 190.471 67.1415C188.69 62.4621 184.49 59.1013 179.532 58.4968Z" fill="#F43939"/>
<path fill-rule="evenodd" clip-rule="evenodd" d="M179.612 86.7355C182.313 86.7355 184.226 84.212 183.915 81.1532C183.607 78.1265 181.238 75.6627 178.577 75.6627C175.877 75.6627 173.964 78.1859 174.274 81.2443C174.582 84.2714 176.952 86.7355 179.612 86.7355ZM175.166 81.1533C174.906 78.5925 176.446 76.5613 178.578 76.5613C180.75 76.5613 182.76 78.6519 183.024 81.2444C183.284 83.8055 181.744 85.837 179.612 85.837C177.44 85.837 175.429 83.746 175.166 81.1533Z" fill="white"/>
<path fill-rule="evenodd" clip-rule="evenodd" d="M206.713 107.267C205.218 108.411 203.357 108.967 201.476 108.967H164.334L164.755 93.4064H191.414C189.176 85.1961 184.911 71.5401 179.096 58.4445C181.462 58.7148 183.965 59.0724 186.67 59.6147C194.335 61.1521 200.587 66.6727 203.066 74.1073C207.778 88.2474 209.739 98.2542 209.873 98.9438C210.484 102.04 209.312 105.278 206.713 107.267Z" fill="#E9E9ED"/>
<path fill-rule="evenodd" clip-rule="evenodd" d="M173.552 93.4066H163.362C161.834 93.4066 160.402 94.151 159.52 95.4024L154.858 102.028C154.023 103.213 153.782 104.719 154.204 106.107L155.075 108.968H173.552V93.4066Z" fill="#FFC07F"/>
<path fill-rule="evenodd" clip-rule="evenodd" d="M173.553 93.4088V108.968H181.56L181.649 93.4088H173.553Z" fill="#F9AAAA"/>
<path fill-rule="evenodd" clip-rule="evenodd" d="M179.096 58.4442C181.462 58.7145 183.965 59.0722 186.67 59.615C192.289 60.7417 197.148 64.0084 200.318 68.6C194.027 59.6139 181.875 62.5393 185.61 74.9164H175.949L179.096 58.4442Z" fill="#F43939"/>
<path fill-rule="evenodd" clip-rule="evenodd" d="M136.844 36.627L136.918 36.7849C137.644 38.343 139.25 39.2933 140.961 39.1763L146.551 38.7941L144.353 34.5803L137.784 35.0292C136.997 35.0829 136.51 35.9118 136.844 36.627Z" fill="#2B273C"/>
<path fill-rule="evenodd" clip-rule="evenodd" d="M154.246 25.578L152.381 25.7056C147.431 26.0436 143.699 30.3525 144.057 35.3145L145.064 49.2716C145.37 53.5094 149.034 56.7023 153.261 56.4135L165.353 55.5863L163.788 33.8913C163.432 28.9578 159.166 25.2411 154.246 25.578Z" fill="#FFC07F"/>
<path fill-rule="evenodd" clip-rule="evenodd" d="M165.626 59.6827L153.539 60.5093L152.565 46.1784L164.609 45.3546L165.626 59.6827Z" fill="#FFC07F"/>
<path d="M149.674 47.593L147.844 47.7183C147.72 47.7266 147.622 47.6177 147.644 47.5192C147.71 47.2329 147.775 47.0644 148.203 46.0314C148.514 45.2792 148.646 44.4611 148.591 43.6452L148.504 42.3747C148.487 42.1272 148.274 41.9402 148.027 41.9571C147.78 41.974 147.594 42.1884 147.61 42.436L147.697 43.7064C147.743 44.3842 147.633 45.0635 147.375 45.6869C146.917 46.7923 146.853 46.9577 146.771 47.3184C146.611 48.0176 147.194 48.662 147.904 48.6149L149.735 48.4894C149.982 48.4725 150.168 48.2581 150.151 48.0106C150.134 47.763 149.921 47.5761 149.674 47.593Z" fill="black"/>
<path fill-rule="evenodd" clip-rule="evenodd" d="M152.083 41.9346C152.105 42.2681 151.854 42.5558 151.522 42.5788C151.19 42.6017 150.902 42.3498 150.879 42.0168C150.857 41.6838 151.108 41.3951 151.44 41.3727C151.772 41.3497 152.06 41.601 152.083 41.9346Z" fill="black"/>
<path fill-rule="evenodd" clip-rule="evenodd" d="M146.316 42.479C146.338 42.7991 146.096 43.0767 145.776 43.0985C145.457 43.1204 145.18 42.8786 145.159 42.5584C145.137 42.2372 145.378 41.9596 145.698 41.9378C146.017 41.9159 146.294 42.1583 146.316 42.479Z" fill="black"/>
<path d="M153.31 57.1287L157.377 56.8506L157.316 55.9541L153.249 56.2323L153.31 57.1287Z" fill="black"/>
<path d="M149.797 39.9849C150.429 40.0409 150.998 40.0028 152.555 39.8431L152.667 39.8316C152.914 39.8064 153.093 39.5859 153.068 39.3391C153.043 39.0922 152.823 38.9125 152.577 38.9377L152.464 38.9492C150.976 39.1019 150.427 39.1387 149.876 39.0899C149.63 39.068 149.412 39.2507 149.39 39.4979C149.369 39.745 149.551 39.9631 149.797 39.9849Z" fill="black"/>
<path d="M146.741 40.5388C145.85 40.7743 145.426 40.8509 144.481 40.9678C144.236 40.9981 144.061 41.2224 144.091 41.4687C144.122 41.7149 144.345 41.8899 144.591 41.8595C145.573 41.7381 146.035 41.6546 146.97 41.4076C147.209 41.3444 147.352 41.0986 147.289 40.8587C147.225 40.6187 146.98 40.4755 146.741 40.5388Z" fill="black"/>
<path fill-rule="evenodd" clip-rule="evenodd" d="M159.465 39.3198C160.175 39.7748 160.629 40.5416 160.686 41.3844C160.739 42.1635 161.411 42.7523 162.188 42.6985L164.413 42.5469L163.788 33.891C163.755 33.4231 163.675 32.9698 163.574 32.526L157.949 32.9111L158.244 37.2552C158.302 38.0981 158.755 38.8648 159.465 39.3198Z" fill="#2B273C"/>
<path fill-rule="evenodd" clip-rule="evenodd" d="M155.267 25.5079C155.228 24.9421 154.74 24.5151 154.176 24.5537C153.611 24.5918 153.186 25.082 153.224 25.6478C153.262 26.2131 153.75 26.6401 154.315 26.6021C154.879 26.5635 155.305 26.0738 155.267 25.5079Z" fill="black"/>
<path fill-rule="evenodd" clip-rule="evenodd" d="M164.065 37.725L163.788 33.8907C163.432 28.9578 159.166 25.2411 154.246 25.578L152.381 25.705C147.431 26.0436 143.699 30.3525 144.057 35.3145L164.065 37.725Z" fill="#F9BCBC"/>
<path fill-rule="evenodd" clip-rule="evenodd" d="M146.709 34.4189C150.639 34.1503 154.564 35.0139 158.021 36.9084L158.229 37.0214L151.346 37.4921C148.046 37.7182 144.739 37.2044 141.662 35.9883L139.021 34.9445L146.709 34.4189Z" fill="#F43939"/>
<path fill-rule="evenodd" clip-rule="evenodd" d="M164.138 38.4001C162.129 38.5377 160.611 40.2828 160.748 42.2982C160.885 44.3135 162.625 45.8358 164.635 45.6987C166.644 45.561 168.163 43.816 168.025 41.8006C167.889 39.7852 166.148 38.2629 164.138 38.4001Z" fill="#FFC07F"/>
<path d="M162.751 43.261L165.467 40.1543C165.63 39.9677 165.611 39.6839 165.425 39.5203C165.239 39.3567 164.956 39.3753 164.793 39.5619L162.077 42.6686C161.914 42.8552 161.932 43.139 162.118 43.3026C162.305 43.4662 162.588 43.4476 162.751 43.261Z" fill="black"/>
<path fill-rule="evenodd" clip-rule="evenodd" d="M172.934 57.8955C171.373 57.8009 169.813 57.7399 168.261 57.7119C168.292 61.1802 168.445 65.0682 168.69 69.1857C172.92 66.1193 174.078 61.6755 172.934 57.8955Z" fill="#F9AAAA"/>
<path fill-rule="evenodd" clip-rule="evenodd" d="M148.638 69.8754C148.47 66.0847 148.711 62.5241 149.405 59.1404C148.391 59.3021 146.491 59.6816 145.35 59.9625C144.264 63.6659 145.428 67.2343 148.638 69.8754Z" fill="#F9AAAA"/>
<path d="M84.3394 68.4587L123.635 68.4755C123.882 68.4756 124.083 68.2746 124.083 68.0264C124.083 67.7783 123.883 67.5771 123.635 67.577L84.3398 67.5602C84.0924 67.5601 83.8917 67.7611 83.8916 68.0093C83.8915 68.2574 84.092 68.4586 84.3394 68.4587Z" fill="#F88888"/>
<path d="M84.1566 70.7231L123.267 74.5384C123.514 74.5624 123.733 74.3817 123.757 74.1347C123.781 73.8878 123.6 73.6681 123.354 73.6441L84.2434 69.8288C83.9971 69.8048 83.778 69.9855 83.7541 70.2325C83.7301 70.4794 83.9104 70.6991 84.1566 70.7231Z" fill="#F88888"/>
<path fill-rule="evenodd" clip-rule="evenodd" d="M102.825 84.7428C100.899 80.6723 100.496 76.7625 100.775 73.9596L98.7813 69.747C98.2087 68.5376 98.7506 67.0931 99.9761 66.5625C101.022 66.1097 102.241 66.4713 102.873 67.4216L111.611 80.5615L102.825 84.7428Z" fill="#FFC07F"/>
<path d="M108.291 74.7588L103.246 67.1719C102.494 66.0414 101.044 65.6113 99.7997 66.1496C98.3413 66.781 97.6963 68.4998 98.377 69.9397L100.371 74.1525C100.961 75.393 101.029 76.2518 100.851 77.9575L100.84 78.0609C100.619 80.1648 100.715 81.234 101.562 82.8604C101.676 83.0804 101.947 83.1657 102.166 83.0509C102.386 82.9361 102.471 82.6647 102.356 82.4447C101.609 81.0089 101.527 80.0989 101.731 78.1549L101.742 78.0511C101.936 76.1954 101.856 75.1877 101.18 73.7664L99.1865 69.5545C98.7231 68.5744 99.1622 67.4043 100.155 66.9746C101.002 66.6082 101.989 66.9009 102.5 67.6704L107.546 75.2574C107.683 75.4638 107.961 75.5195 108.167 75.3818C108.373 75.2442 108.429 74.9652 108.291 74.7588Z" fill="black"/>
<path d="M150.255 50.9433L153.624 49.2951C153.846 49.1863 153.939 48.9173 153.83 48.6943C153.722 48.4713 153.454 48.3787 153.231 48.4875L149.862 50.1357C149.64 50.2445 149.547 50.5135 149.656 50.7365C149.764 50.9595 150.032 51.0521 150.255 50.9433Z" fill="black"/>
<path fill-rule="evenodd" clip-rule="evenodd" d="M63.02 71.7927L56.2143 79.468L49.4085 71.7927C47.6087 69.7628 44.2607 71.0394 44.2607 73.7566V103.352H68.1678V73.7566C68.1678 71.0394 64.8199 69.7628 63.02 71.7927Z" fill="#F43939"/>
<path fill-rule="evenodd" clip-rule="evenodd" d="M81.43 103.353H30.9997C30.4511 103.353 30.0068 102.907 30.0068 102.358C30.0068 101.808 30.4511 101.363 30.9997 101.363H81.43C81.9775 101.363 82.4217 101.808 82.4217 102.358C82.4217 102.907 81.9775 103.353 81.43 103.353Z" fill="#F43939"/>
<mask id="mask0_1275_31518" style="mask-type:alpha" maskUnits="userSpaceOnUse" x="44" y="70" width="25" height="34">
<path fill-rule="evenodd" clip-rule="evenodd" d="M63.02 71.7929L56.2148 79.4676L49.4085 71.7929C47.6087 69.7629 44.2607 71.0395 44.2607 73.7562V103.353H68.1678V73.7562C68.1678 71.9619 66.7073 70.7955 65.1971 70.7955C64.4208 70.7955 63.6311 71.1033 63.02 71.7929Z" fill="white"/>
</mask>
<g mask="url(#mask0_1275_31518)">
<path fill-rule="evenodd" clip-rule="evenodd" d="M42.2119 99.2127H70.2164V94.2977H42.2119V99.2127ZM43.0489 98.3732H69.3791V95.1372H43.0489V98.3732Z" fill="black"/>
</g>
<path fill-rule="evenodd" clip-rule="evenodd" d="M61.3035 100.943C59.0008 100.943 57.1279 99.0648 57.1279 96.7556C57.1279 94.4464 59.0008 92.567 61.3035 92.567C63.6061 92.567 65.4796 94.4464 65.4796 96.7556C65.4796 99.0648 63.6061 100.943 61.3035 100.943Z" fill="#F88888"/>
<path fill-rule="evenodd" clip-rule="evenodd" d="M61.3041 92.1475C58.7665 92.1475 56.71 94.211 56.71 96.7552C56.71 99.3 58.7665 101.363 61.3041 101.363C63.8417 101.363 65.8987 99.3 65.8987 96.7552C65.8987 94.211 63.8417 92.1475 61.3041 92.1475ZM61.304 92.987C63.3762 92.987 65.0616 94.6777 65.0616 96.7552C65.0616 98.8327 63.3762 100.523 61.304 100.523C59.2324 100.523 57.547 98.8327 57.547 96.7552C57.547 94.6777 59.2324 92.987 61.304 92.987Z" fill="#F88888"/>
<path fill-rule="evenodd" clip-rule="evenodd" d="M61.4458 93.4979L62.3309 95.2967C62.351 95.3375 62.3895 95.3655 62.4347 95.3722L64.4137 95.6604C64.527 95.6772 64.5722 95.8166 64.4901 95.8966L63.0586 97.2964C63.0257 97.3283 63.0112 97.3742 63.0185 97.4189L63.3567 99.3957C63.3762 99.5082 63.2579 99.5949 63.1563 99.5417L61.3866 98.6082C61.3459 98.587 61.2979 98.587 61.2577 98.6082L59.4875 99.5417C59.387 99.5949 59.2687 99.5082 59.2877 99.3957L59.6253 97.4189C59.6332 97.3742 59.6186 97.3283 59.5863 97.2964L58.1542 95.8966C58.0722 95.8166 58.1174 95.6772 58.2301 95.6604L60.2097 95.3722C60.2543 95.3655 60.2934 95.3375 60.3135 95.2967L61.1986 93.4979C61.2488 93.3949 61.395 93.3949 61.4458 93.4979Z" fill="white"/>
<path d="M60.5904 79.7665L65.1114 74.6685C65.2758 74.4831 65.2592 74.1991 65.0743 74.0342C64.8895 73.8693 64.6063 73.886 64.4419 74.0714L59.9209 79.1694C59.7564 79.3548 59.773 79.6388 59.9579 79.8037C60.1428 79.9686 60.426 79.9519 60.5904 79.7665Z" fill="black"/>
<path fill-rule="evenodd" clip-rule="evenodd" d="M161.006 105.014C163.448 105.014 165.428 103.028 165.428 100.58C165.428 98.1304 163.448 96.1453 161.006 96.1453H157.963V105.014H161.006Z" fill="#545159"/>
<path fill-rule="evenodd" clip-rule="evenodd" d="M161.965 100.58C161.965 98.3628 160.173 96.5663 157.963 96.5663C155.753 96.5663 153.961 98.3628 153.961 100.58C153.961 102.796 155.753 104.593 157.963 104.593C160.173 104.593 161.965 102.796 161.965 100.58Z" fill="#EEEEEF"/>
<path fill-rule="evenodd" clip-rule="evenodd" d="M159.763 100.58C159.763 100.214 160.039 99.7709 159.869 99.4754C159.693 99.1709 159.167 99.1916 158.863 99.0153C158.568 98.844 158.327 98.3728 157.962 98.3728C157.598 98.3728 157.357 98.844 157.062 99.0153C156.759 99.1916 156.232 99.1709 156.056 99.4754C155.886 99.7709 156.162 100.214 156.162 100.58C156.162 100.945 155.886 101.388 156.056 101.684C156.232 101.988 156.759 101.968 157.062 102.144C157.357 102.315 157.598 102.786 157.962 102.786C158.327 102.786 158.568 102.315 158.863 102.144C159.167 101.968 159.693 101.988 159.869 101.684C160.039 101.388 159.763 100.945 159.763 100.58Z" fill="#F43939"/>
<path fill-rule="evenodd" clip-rule="evenodd" d="M157.962 96.1454C155.521 96.1454 153.541 98.1305 153.541 100.58C153.541 103.028 155.521 105.014 157.962 105.014C160.404 105.014 162.384 103.028 162.384 100.58C162.384 98.1305 160.404 96.1454 157.962 96.1454ZM157.962 96.9849C159.939 96.9849 161.547 98.5973 161.547 100.58C161.547 102.561 159.939 104.174 157.962 104.174C155.986 104.174 154.378 102.561 154.378 100.58C154.378 98.5973 155.986 96.9849 157.962 96.9849Z" fill="#545159"/>
<path fill-rule="evenodd" clip-rule="evenodd" d="M153.216 105.014C155.658 105.014 157.638 103.028 157.638 100.58C157.638 98.1304 155.658 96.1453 153.216 96.1453H150.173V105.014H153.216Z" fill="#545159"/>
<path fill-rule="evenodd" clip-rule="evenodd" d="M154.175 100.58C154.175 98.3628 152.383 96.5663 150.173 96.5663C147.962 96.5663 146.171 98.3628 146.171 100.58C146.171 102.796 147.962 104.593 150.173 104.593C152.383 104.593 154.175 102.796 154.175 100.58Z" fill="#EEEEEF"/>
<path fill-rule="evenodd" clip-rule="evenodd" d="M151.973 100.58C151.973 100.214 152.249 99.7709 152.078 99.4754C151.903 99.1709 151.377 99.1916 151.073 99.0153C150.779 98.844 150.538 98.3728 150.173 98.3728C149.808 98.3728 149.567 98.844 149.272 99.0153C148.969 99.1916 148.442 99.1709 148.266 99.4754C148.096 99.7709 148.372 100.214 148.372 100.58C148.372 100.945 148.096 101.388 148.267 101.684C148.442 101.988 148.969 101.968 149.272 102.144C149.567 102.315 149.808 102.786 150.173 102.786C150.538 102.786 150.779 102.315 151.073 102.144C151.377 101.968 151.903 101.988 152.079 101.684C152.249 101.388 151.973 100.945 151.973 100.58Z" fill="#F43939"/>
<path fill-rule="evenodd" clip-rule="evenodd" d="M150.172 96.1454C147.73 96.1454 145.75 98.1305 145.75 100.58C145.75 103.028 147.73 105.014 150.172 105.014C152.614 105.014 154.593 103.028 154.593 100.58C154.593 98.1305 152.614 96.1454 150.172 96.1454ZM150.172 96.9849C152.148 96.9849 153.756 98.5973 153.756 100.58C153.756 102.561 152.148 104.174 150.172 104.174C148.195 104.174 146.587 102.561 146.587 100.58C146.587 98.5973 148.195 96.9849 150.172 96.9849Z" fill="#545159"/>
<path fill-rule="evenodd" clip-rule="evenodd" d="M145.426 105.014C147.868 105.014 149.847 103.028 149.847 100.58C149.847 98.1304 147.868 96.1453 145.426 96.1453H142.383V105.014H145.426Z" fill="#545159"/>
<path fill-rule="evenodd" clip-rule="evenodd" d="M146.346 100.58C146.346 98.384 144.571 96.6042 142.382 96.6042C140.194 96.6042 138.419 98.384 138.419 100.58C138.419 102.775 140.194 104.555 142.382 104.555C144.571 104.555 146.346 102.775 146.346 100.58Z" fill="#EEEEEF"/>
<path fill-rule="evenodd" clip-rule="evenodd" d="M144.182 100.58C144.182 100.214 144.458 99.7709 144.287 99.4754C144.112 99.1709 143.586 99.1916 143.282 99.0153C142.988 98.844 142.746 98.3728 142.382 98.3728C142.017 98.3728 141.776 98.844 141.481 99.0153C141.178 99.1916 140.651 99.1709 140.475 99.4754C140.305 99.7709 140.581 100.214 140.581 100.58C140.581 100.945 140.305 101.388 140.475 101.684C140.651 101.988 141.178 101.968 141.481 102.144C141.776 102.315 142.017 102.786 142.382 102.786C142.746 102.786 142.988 102.315 143.282 102.144C143.586 101.968 144.112 101.988 144.287 101.684C144.458 101.388 144.182 100.945 144.182 100.58Z" fill="#F43939"/>
<path fill-rule="evenodd" clip-rule="evenodd" d="M142.383 96.1454C139.94 96.1454 137.961 98.1305 137.961 100.58C137.961 103.028 139.94 105.014 142.383 105.014C144.824 105.014 146.804 103.028 146.804 100.58C146.804 98.1305 144.824 96.1454 142.383 96.1454ZM142.383 96.9849C144.359 96.9849 145.967 98.5973 145.967 100.58C145.967 102.561 144.359 104.174 142.383 104.174C140.406 104.174 138.798 102.561 138.798 100.58C138.798 98.5973 140.406 96.9849 142.383 96.9849Z" fill="#545159"/>
<path fill-rule="evenodd" clip-rule="evenodd" d="M106.945 93.2837C106.945 92.3574 106.195 91.6063 105.272 91.6063C104.348 91.6063 103.599 92.3574 103.599 93.2837C103.599 94.2105 104.348 94.9615 105.272 94.9615C106.195 94.9615 106.945 94.2105 106.945 93.2837Z" fill="#F89999"/>
<path fill-rule="evenodd" clip-rule="evenodd" d="M112.576 96.3449C112.576 95.4181 111.827 94.667 110.903 94.667C109.979 94.667 109.229 95.4181 109.229 96.3449C109.229 97.2711 109.979 98.0228 110.903 98.0228C111.827 98.0228 112.576 97.2711 112.576 96.3449Z" fill="#F89999"/>
<path fill-rule="evenodd" clip-rule="evenodd" d="M111.223 94.2117C111.223 93.2849 110.474 92.5338 109.55 92.5338C108.626 92.5338 107.877 93.2849 107.877 94.2117C107.877 95.1379 108.626 95.8896 109.55 95.8896C110.474 95.8896 111.223 95.1379 111.223 94.2117Z" fill="#F89999"/>
<path fill-rule="evenodd" clip-rule="evenodd" d="M109.444 94.2505C109.444 93.3237 108.695 92.5726 107.771 92.5726C106.847 92.5726 106.098 93.3237 106.098 94.2505C106.098 95.1768 106.847 95.9278 107.771 95.9278C108.695 95.9278 109.444 95.1768 109.444 94.2505Z" fill="#F89999"/>
<path fill-rule="evenodd" clip-rule="evenodd" d="M105.808 94.8303C105.808 93.9041 105.059 93.1525 104.134 93.1525C103.211 93.1525 102.462 93.9041 102.462 94.8303C102.462 95.7572 103.211 96.5082 104.134 96.5082C105.059 96.5082 105.808 95.7572 105.808 94.8303Z" fill="#F9CDCD"/>
<path fill-rule="evenodd" clip-rule="evenodd" d="M110.337 96.0005C110.337 95.0743 109.589 94.3226 108.664 94.3226C107.741 94.3226 106.991 95.0743 106.991 96.0005C106.991 96.9273 107.741 97.6784 108.664 97.6784C109.589 97.6784 110.337 96.9273 110.337 96.0005Z" fill="#F9CDCD"/>
<path fill-rule="evenodd" clip-rule="evenodd" d="M104.996 95.8825C104.996 94.9562 104.247 94.2046 103.323 94.2046C102.399 94.2046 101.649 94.9562 101.649 95.8825C101.649 96.8093 102.399 97.5604 103.323 97.5604C104.247 97.5604 104.996 96.8093 104.996 95.8825Z" fill="#F89999"/>
<path fill-rule="evenodd" clip-rule="evenodd" d="M102.869 94.2926C102.869 93.3658 102.12 92.6147 101.196 92.6147C100.272 92.6147 99.5225 93.3658 99.5225 94.2926C99.5225 95.2189 100.272 95.97 101.196 95.97C102.12 95.97 102.869 95.2189 102.869 94.2926Z" fill="#F89999"/>
<path fill-rule="evenodd" clip-rule="evenodd" d="M107.316 95.6497C107.316 94.7234 106.567 93.9718 105.643 93.9718C104.719 93.9718 103.97 94.7234 103.97 95.6497C103.97 96.5765 104.719 97.3276 105.643 97.3276C106.567 97.3276 107.316 96.5765 107.316 95.6497Z" fill="#F89999"/>
<path fill-rule="evenodd" clip-rule="evenodd" d="M109.56 97.1625C109.56 96.2357 108.811 95.4846 107.887 95.4846C106.963 95.4846 106.214 96.2357 106.214 97.1625C106.214 98.0888 106.963 98.8404 107.887 98.8404C108.811 98.8404 109.56 98.0888 109.56 97.1625Z" fill="#F89999"/>
<path fill-rule="evenodd" clip-rule="evenodd" d="M102.747 96.3892C102.747 95.4629 101.998 94.7113 101.074 94.7113C100.15 94.7113 99.4004 95.4629 99.4004 96.3892C99.4004 97.316 100.15 98.0671 101.074 98.0671C101.998 98.0671 102.747 97.316 102.747 96.3892Z" fill="#F9CDCD"/>
<path fill-rule="evenodd" clip-rule="evenodd" d="M107.001 97.5916C107.001 96.6653 106.252 95.9137 105.327 95.9137C104.404 95.9137 103.654 96.6653 103.654 97.5916C103.654 98.5184 104.404 99.2695 105.327 99.2695C106.252 99.2695 107.001 98.5184 107.001 97.5916Z" fill="#F9CDCD"/>
<path fill-rule="evenodd" clip-rule="evenodd" d="M100.471 96.193C100.471 95.2662 99.7223 94.5151 98.7981 94.5151C97.8745 94.5151 97.125 95.2662 97.125 96.193C97.125 97.1193 97.8745 97.8709 98.7981 97.8709C99.7223 97.8709 100.471 97.1193 100.471 96.193Z" fill="#F89999"/>
<path fill-rule="evenodd" clip-rule="evenodd" d="M96.1523 104.569H113.149V96.7557H96.1523V104.569Z" fill="#6A6773"/>
<path fill-rule="evenodd" clip-rule="evenodd" d="M60.8811 108.968H41.5693V103.354H72.3089V103.48C72.3089 104.591 71.7302 105.62 70.7832 106.196C67.7974 108.008 64.3725 108.968 60.8811 108.968Z" fill="#C9C8CD"/>
<path fill-rule="evenodd" clip-rule="evenodd" d="M110.105 108.968H90.793V103.354H121.533V103.48C121.533 104.591 120.954 105.62 120.007 106.196C117.02 108.008 113.596 108.968 110.105 108.968Z" fill="#C9C8CD"/>
<path fill-rule="evenodd" clip-rule="evenodd" d="M156.026 108.968H136.714V103.354H167.453V103.48C167.453 104.591 166.874 105.62 165.928 106.196C162.941 108.008 159.517 108.968 156.026 108.968Z" fill="#C9C8CD"/>
<path d="M19.3504 108.818H213.189C213.435 108.818 213.635 108.617 213.635 108.368C213.635 108.12 213.435 107.919 213.189 107.919H19.3504C19.104 107.919 18.9043 108.12 18.9043 108.368C18.9043 108.617 19.104 108.818 19.3504 108.818Z" fill="#B6B5BC"/>
<path d="M68.9688 141H65.8906L60.9219 132.359H60.8516C60.9505 133.885 61 134.974 61 135.625V141H58.8359V129.578H61.8906L66.8516 138.133H66.9062C66.8281 136.648 66.7891 135.599 66.7891 134.984V129.578H68.9688V141ZM73.5625 136.617C73.5625 137.482 73.7031 138.135 73.9844 138.578C74.2708 139.021 74.7344 139.242 75.375 139.242C76.0104 139.242 76.4661 139.023 76.7422 138.586C77.0234 138.143 77.1641 137.487 77.1641 136.617C77.1641 135.753 77.0234 135.104 76.7422 134.672C76.4609 134.24 76 134.023 75.3594 134.023C74.724 134.023 74.2656 134.24 73.9844 134.672C73.7031 135.099 73.5625 135.747 73.5625 136.617ZM79.6016 136.617C79.6016 138.039 79.2266 139.151 78.4766 139.953C77.7266 140.755 76.6823 141.156 75.3438 141.156C74.5052 141.156 73.7656 140.974 73.125 140.609C72.4844 140.24 71.9922 139.711 71.6484 139.023C71.3047 138.336 71.1328 137.534 71.1328 136.617C71.1328 135.19 71.5052 134.081 72.25 133.289C72.9948 132.497 74.0417 132.102 75.3906 132.102C76.2292 132.102 76.9688 132.284 77.6094 132.648C78.25 133.013 78.7422 133.536 79.0859 134.219C79.4297 134.901 79.6016 135.701 79.6016 136.617ZM89.2734 141.156C86.5547 141.156 85.1953 139.664 85.1953 136.68C85.1953 135.195 85.5651 134.062 86.3047 133.281C87.0443 132.495 88.1042 132.102 89.4844 132.102C90.4948 132.102 91.401 132.299 92.2031 132.695L91.5 134.539C91.125 134.388 90.776 134.266 90.4531 134.172C90.1302 134.073 89.8073 134.023 89.4844 134.023C88.2448 134.023 87.625 134.904 87.625 136.664C87.625 138.372 88.2448 139.227 89.4844 139.227C89.9427 139.227 90.3672 139.167 90.7578 139.047C91.1484 138.922 91.5391 138.729 91.9297 138.469V140.508C91.5443 140.753 91.1536 140.922 90.7578 141.016C90.3672 141.109 89.8724 141.156 89.2734 141.156ZM95.8594 136.617C95.8594 137.482 96 138.135 96.2812 138.578C96.5677 139.021 97.0312 139.242 97.6719 139.242C98.3073 139.242 98.763 139.023 99.0391 138.586C99.3203 138.143 99.4609 137.487 99.4609 136.617C99.4609 135.753 99.3203 135.104 99.0391 134.672C98.7578 134.24 98.2969 134.023 97.6562 134.023C97.0208 134.023 96.5625 134.24 96.2812 134.672C96 135.099 95.8594 135.747 95.8594 136.617ZM101.898 136.617C101.898 138.039 101.523 139.151 100.773 139.953C100.023 140.755 98.9792 141.156 97.6406 141.156C96.8021 141.156 96.0625 140.974 95.4219 140.609C94.7812 140.24 94.2891 139.711 93.9453 139.023C93.6016 138.336 93.4297 137.534 93.4297 136.617C93.4297 135.19 93.8021 134.081 94.5469 133.289C95.2917 132.497 96.3385 132.102 97.6875 132.102C98.526 132.102 99.2656 132.284 99.9062 132.648C100.547 133.013 101.039 133.536 101.383 134.219C101.727 134.901 101.898 135.701 101.898 136.617ZM111.93 141H109.547V135.898C109.547 135.268 109.435 134.797 109.211 134.484C108.987 134.167 108.63 134.008 108.141 134.008C107.474 134.008 106.992 134.232 106.695 134.68C106.398 135.122 106.25 135.859 106.25 136.891V141H103.867V132.266H105.688L106.008 133.383H106.141C106.406 132.961 106.771 132.643 107.234 132.43C107.703 132.211 108.234 132.102 108.828 132.102C109.844 132.102 110.615 132.378 111.141 132.93C111.667 133.477 111.93 134.268 111.93 135.305V141ZM122.445 141H120.062V135.898C120.062 135.268 119.951 134.797 119.727 134.484C119.503 134.167 119.146 134.008 118.656 134.008C117.99 134.008 117.508 134.232 117.211 134.68C116.914 135.122 116.766 135.859 116.766 136.891V141H114.383V132.266H116.203L116.523 133.383H116.656C116.922 132.961 117.286 132.643 117.75 132.43C118.219 132.211 118.75 132.102 119.344 132.102C120.359 132.102 121.13 132.378 121.656 132.93C122.182 133.477 122.445 134.268 122.445 135.305V141ZM128.516 133.797C128.01 133.797 127.615 133.958 127.328 134.281C127.042 134.599 126.878 135.052 126.836 135.641H130.18C130.169 135.052 130.016 134.599 129.719 134.281C129.422 133.958 129.021 133.797 128.516 133.797ZM128.852 141.156C127.445 141.156 126.346 140.768 125.555 139.992C124.763 139.216 124.367 138.117 124.367 136.695C124.367 135.232 124.732 134.102 125.461 133.305C126.195 132.503 127.208 132.102 128.5 132.102C129.734 132.102 130.695 132.453 131.383 133.156C132.07 133.859 132.414 134.831 132.414 136.07V137.227H126.781C126.807 137.904 127.008 138.432 127.383 138.812C127.758 139.193 128.284 139.383 128.961 139.383C129.487 139.383 129.984 139.328 130.453 139.219C130.922 139.109 131.411 138.935 131.922 138.695V140.539C131.505 140.747 131.06 140.901 130.586 141C130.112 141.104 129.534 141.156 128.852 141.156ZM137.898 141.156C135.18 141.156 133.82 139.664 133.82 136.68C133.82 135.195 134.19 134.062 134.93 133.281C135.669 132.495 136.729 132.102 138.109 132.102C139.12 132.102 140.026 132.299 140.828 132.695L140.125 134.539C139.75 134.388 139.401 134.266 139.078 134.172C138.755 134.073 138.432 134.023 138.109 134.023C136.87 134.023 136.25 134.904 136.25 136.664C136.25 138.372 136.87 139.227 138.109 139.227C138.568 139.227 138.992 139.167 139.383 139.047C139.773 138.922 140.164 138.729 140.555 138.469V140.508C140.169 140.753 139.779 140.922 139.383 141.016C138.992 141.109 138.497 141.156 137.898 141.156ZM146.266 139.258C146.682 139.258 147.182 139.167 147.766 138.984V140.758C147.172 141.023 146.443 141.156 145.578 141.156C144.625 141.156 143.93 140.917 143.492 140.438C143.06 139.953 142.844 139.229 142.844 138.266V134.055H141.703V133.047L143.016 132.25L143.703 130.406H145.227V132.266H147.672V134.055H145.227V138.266C145.227 138.604 145.32 138.854 145.508 139.016C145.701 139.177 145.953 139.258 146.266 139.258ZM149.438 130.008C149.438 129.232 149.87 128.844 150.734 128.844C151.599 128.844 152.031 129.232 152.031 130.008C152.031 130.378 151.922 130.667 151.703 130.875C151.49 131.078 151.167 131.18 150.734 131.18C149.87 131.18 149.438 130.789 149.438 130.008ZM151.922 141H149.539V132.266H151.922V141ZM156.328 136.617C156.328 137.482 156.469 138.135 156.75 138.578C157.036 139.021 157.5 139.242 158.141 139.242C158.776 139.242 159.232 139.023 159.508 138.586C159.789 138.143 159.93 137.487 159.93 136.617C159.93 135.753 159.789 135.104 159.508 134.672C159.227 134.24 158.766 134.023 158.125 134.023C157.49 134.023 157.031 134.24 156.75 134.672C156.469 135.099 156.328 135.747 156.328 136.617ZM162.367 136.617C162.367 138.039 161.992 139.151 161.242 139.953C160.492 140.755 159.448 141.156 158.109 141.156C157.271 141.156 156.531 140.974 155.891 140.609C155.25 140.24 154.758 139.711 154.414 139.023C154.07 138.336 153.898 137.534 153.898 136.617C153.898 135.19 154.271 134.081 155.016 133.289C155.76 132.497 156.807 132.102 158.156 132.102C158.995 132.102 159.734 132.284 160.375 132.648C161.016 133.013 161.508 133.536 161.852 134.219C162.195 134.901 162.367 135.701 162.367 136.617ZM172.398 141H170.016V135.898C170.016 135.268 169.904 134.797 169.68 134.484C169.456 134.167 169.099 134.008 168.609 134.008C167.943 134.008 167.461 134.232 167.164 134.68C166.867 135.122 166.719 135.859 166.719 136.891V141H164.336V132.266H166.156L166.477 133.383H166.609C166.875 132.961 167.24 132.643 167.703 132.43C168.172 132.211 168.703 132.102 169.297 132.102C170.312 132.102 171.083 132.378 171.609 132.93C172.135 133.477 172.398 134.268 172.398 135.305V141Z" fill="#2B273C"/>
<path d="M20.4736 165H19.3252L17.3086 158.308C17.2129 158.011 17.1058 157.638 16.9873 157.187C16.8688 156.735 16.8073 156.464 16.8027 156.373C16.7025 156.975 16.543 157.633 16.3242 158.349L14.3691 165H13.2207L10.5615 155.006H11.792L13.3711 161.179C13.5898 162.045 13.7493 162.828 13.8496 163.53C13.9727 162.696 14.1549 161.881 14.3965 161.083L16.1875 155.006H17.418L19.2979 161.138C19.5166 161.844 19.7012 162.642 19.8516 163.53C19.9382 162.883 20.1022 162.095 20.3438 161.165L21.916 155.006H23.1465L20.4736 165ZM27.7061 165.137C26.5986 165.137 25.7236 164.799 25.0811 164.125C24.443 163.451 24.124 162.514 24.124 161.315C24.124 160.108 24.4202 159.148 25.0127 158.438C25.6097 157.727 26.4095 157.371 27.4121 157.371C28.3509 157.371 29.0938 157.681 29.6406 158.301C30.1875 158.916 30.4609 159.729 30.4609 160.741V161.459H25.2998C25.3226 162.339 25.5436 163.006 25.9629 163.462C26.3867 163.918 26.9814 164.146 27.7471 164.146C28.5537 164.146 29.3512 163.977 30.1396 163.64V164.651C29.7386 164.825 29.3581 164.948 28.998 165.021C28.6426 165.098 28.2119 165.137 27.7061 165.137ZM27.3984 158.321C26.7969 158.321 26.3161 158.517 25.9561 158.909C25.6006 159.301 25.391 159.843 25.3271 160.536H29.2441C29.2441 159.821 29.0846 159.274 28.7656 158.896C28.4466 158.513 27.9909 158.321 27.3984 158.321ZM33.3115 155.006L33.4141 155.156C33.2956 155.612 33.1247 156.143 32.9014 156.749C32.6781 157.351 32.4456 157.911 32.2041 158.431H31.3701C31.6891 157.132 31.9215 155.99 32.0674 155.006H33.3115ZM38.1992 157.371C38.5319 157.371 38.8304 157.398 39.0947 157.453L38.9375 158.506C38.6276 158.438 38.3542 158.403 38.1172 158.403C37.5111 158.403 36.9915 158.649 36.5586 159.142C36.1302 159.634 35.916 160.247 35.916 160.98V165H34.7812V157.508H35.7178L35.8477 158.896H35.9023C36.1803 158.408 36.5153 158.032 36.9072 157.768C37.2992 157.503 37.7298 157.371 38.1992 157.371ZM43.6611 165.137C42.5537 165.137 41.6787 164.799 41.0361 164.125C40.3981 163.451 40.0791 162.514 40.0791 161.315C40.0791 160.108 40.3753 159.148 40.9678 158.438C41.5648 157.727 42.3646 157.371 43.3672 157.371C44.306 157.371 45.0488 157.681 45.5957 158.301C46.1426 158.916 46.416 159.729 46.416 160.741V161.459H41.2549C41.2777 162.339 41.4987 163.006 41.918 163.462C42.3418 163.918 42.9365 164.146 43.7021 164.146C44.5088 164.146 45.3063 163.977 46.0947 163.64V164.651C45.6937 164.825 45.3132 164.948 44.9531 165.021C44.5977 165.098 44.167 165.137 43.6611 165.137ZM43.3535 158.321C42.752 158.321 42.2712 158.517 41.9111 158.909C41.5557 159.301 41.346 159.843 41.2822 160.536H45.1992C45.1992 159.821 45.0397 159.274 44.7207 158.896C44.4017 158.513 43.946 158.321 43.3535 158.321ZM57.1211 165V160.153C57.1211 159.543 56.9821 159.087 56.7041 158.786C56.4261 158.485 55.9909 158.335 55.3984 158.335C54.61 158.335 54.0335 158.549 53.6689 158.978C53.3089 159.406 53.1289 160.108 53.1289 161.083V165H51.9941V154.363H53.1289V157.583C53.1289 157.97 53.1107 158.292 53.0742 158.547H53.1426C53.3659 158.187 53.6826 157.904 54.0928 157.699C54.5075 157.49 54.9792 157.385 55.5078 157.385C56.4238 157.385 57.1097 157.604 57.5654 158.041C58.0257 158.474 58.2559 159.164 58.2559 160.112V165H57.1211ZM65.2012 165L64.9756 163.934H64.9209C64.5472 164.403 64.1735 164.722 63.7998 164.891C63.4307 165.055 62.9681 165.137 62.4121 165.137C61.6693 165.137 61.0859 164.945 60.6621 164.562C60.2428 164.18 60.0332 163.635 60.0332 162.929C60.0332 161.416 61.2432 160.623 63.6631 160.55L64.9346 160.509V160.044C64.9346 159.456 64.807 159.023 64.5518 158.745C64.3011 158.463 63.8978 158.321 63.3418 158.321C62.7174 158.321 62.0111 158.513 61.2227 158.896L60.874 158.027C61.2432 157.827 61.6465 157.67 62.084 157.556C62.526 157.442 62.9681 157.385 63.4102 157.385C64.3034 157.385 64.9642 157.583 65.3926 157.979C65.8255 158.376 66.042 159.012 66.042 159.887V165H65.2012ZM62.6377 164.2C63.3441 164.2 63.8978 164.007 64.2988 163.619C64.7044 163.232 64.9072 162.689 64.9072 161.992V161.315L63.7725 161.363C62.8701 161.395 62.2184 161.536 61.8174 161.787C61.4209 162.033 61.2227 162.418 61.2227 162.942C61.2227 163.353 61.3457 163.665 61.5918 163.879C61.8424 164.093 62.1911 164.2 62.6377 164.2ZM70.0273 165L67.1836 157.508H68.4004L70.0137 161.951C70.3783 162.99 70.5924 163.665 70.6562 163.975H70.7109C70.7611 163.733 70.9183 163.234 71.1826 162.478C71.4515 161.716 72.0508 160.06 72.9805 157.508H74.1973L71.3535 165H70.0273ZM76.5352 165H75.4004V157.508H76.5352V165ZM75.3047 155.478C75.3047 155.218 75.3685 155.029 75.4961 154.91C75.6237 154.787 75.7832 154.726 75.9746 154.726C76.1569 154.726 76.3141 154.787 76.4463 154.91C76.5785 155.033 76.6445 155.222 76.6445 155.478C76.6445 155.733 76.5785 155.924 76.4463 156.052C76.3141 156.175 76.1569 156.236 75.9746 156.236C75.7832 156.236 75.6237 156.175 75.4961 156.052C75.3685 155.924 75.3047 155.733 75.3047 155.478ZM84.0684 165V160.153C84.0684 159.543 83.9294 159.087 83.6514 158.786C83.3734 158.485 82.9382 158.335 82.3457 158.335C81.5618 158.335 80.9876 158.547 80.623 158.971C80.2585 159.395 80.0762 160.094 80.0762 161.069V165H78.9414V157.508H79.8643L80.0488 158.533H80.1035C80.3359 158.164 80.6618 157.879 81.0811 157.679C81.5003 157.474 81.9674 157.371 82.4824 157.371C83.3848 157.371 84.0638 157.59 84.5195 158.027C84.9753 158.46 85.2031 159.155 85.2031 160.112V165H84.0684ZM93.6729 157.508V158.226L92.2852 158.39C92.4128 158.549 92.5267 158.759 92.627 159.019C92.7272 159.274 92.7773 159.563 92.7773 159.887C92.7773 160.62 92.5267 161.206 92.0254 161.644C91.5241 162.081 90.8359 162.3 89.9609 162.3C89.7376 162.3 89.528 162.282 89.332 162.245C88.849 162.5 88.6074 162.822 88.6074 163.209C88.6074 163.414 88.6917 163.567 88.8604 163.667C89.029 163.763 89.3184 163.811 89.7285 163.811H91.0547C91.8659 163.811 92.488 163.981 92.9209 164.323C93.3584 164.665 93.5771 165.162 93.5771 165.813C93.5771 166.643 93.2445 167.274 92.5791 167.707C91.9137 168.145 90.943 168.363 89.667 168.363C88.6872 168.363 87.9307 168.181 87.3975 167.816C86.8688 167.452 86.6045 166.937 86.6045 166.271C86.6045 165.816 86.7503 165.422 87.042 165.089C87.3337 164.756 87.7438 164.531 88.2725 164.412C88.0811 164.326 87.9193 164.191 87.7871 164.009C87.6595 163.826 87.5957 163.615 87.5957 163.373C87.5957 163.1 87.6686 162.86 87.8145 162.655C87.9603 162.45 88.1904 162.252 88.5049 162.061C88.1175 161.901 87.8008 161.63 87.5547 161.247C87.3132 160.864 87.1924 160.427 87.1924 159.935C87.1924 159.114 87.4385 158.483 87.9307 158.041C88.4229 157.594 89.1201 157.371 90.0225 157.371C90.4144 157.371 90.7676 157.417 91.082 157.508H93.6729ZM87.6982 166.258C87.6982 166.663 87.8691 166.971 88.2109 167.181C88.5527 167.39 89.0426 167.495 89.6807 167.495C90.6331 167.495 91.3372 167.352 91.793 167.064C92.2533 166.782 92.4834 166.397 92.4834 165.909C92.4834 165.504 92.3581 165.221 92.1074 165.062C91.8568 164.907 91.3851 164.829 90.6924 164.829H89.332C88.8171 164.829 88.416 164.952 88.1289 165.198C87.8418 165.444 87.6982 165.798 87.6982 166.258ZM88.3135 159.907C88.3135 160.431 88.4616 160.828 88.7578 161.097C89.054 161.366 89.4665 161.5 89.9951 161.5C91.1025 161.5 91.6562 160.962 91.6562 159.887C91.6562 158.761 91.0957 158.198 89.9746 158.198C89.4414 158.198 89.0312 158.342 88.7441 158.629C88.457 158.916 88.3135 159.342 88.3135 159.907ZM101.268 164.2C101.468 164.2 101.662 164.187 101.849 164.159C102.035 164.127 102.184 164.095 102.293 164.063V164.932C102.17 164.991 101.988 165.039 101.746 165.075C101.509 165.116 101.295 165.137 101.104 165.137C99.6543 165.137 98.9297 164.373 98.9297 162.847V158.39H97.8564V157.843L98.9297 157.371L99.4082 155.771H100.064V157.508H102.238V158.39H100.064V162.799C100.064 163.25 100.172 163.596 100.386 163.838C100.6 164.079 100.894 164.2 101.268 164.2ZM107.215 157.371C107.548 157.371 107.846 157.398 108.11 157.453L107.953 158.506C107.643 158.438 107.37 158.403 107.133 158.403C106.527 158.403 106.007 158.649 105.574 159.142C105.146 159.634 104.932 160.247 104.932 160.98V165H103.797V157.508H104.733L104.863 158.896H104.918C105.196 158.408 105.531 158.032 105.923 157.768C106.315 157.503 106.745 157.371 107.215 157.371ZM115.979 161.247C115.979 162.468 115.671 163.423 115.056 164.111C114.44 164.795 113.59 165.137 112.506 165.137C111.836 165.137 111.241 164.979 110.722 164.665C110.202 164.351 109.801 163.899 109.519 163.312C109.236 162.724 109.095 162.035 109.095 161.247C109.095 160.026 109.4 159.076 110.011 158.396C110.621 157.713 111.469 157.371 112.554 157.371C113.602 157.371 114.434 157.72 115.049 158.417C115.669 159.114 115.979 160.058 115.979 161.247ZM110.271 161.247C110.271 162.204 110.462 162.933 110.845 163.435C111.228 163.936 111.79 164.187 112.533 164.187C113.276 164.187 113.839 163.938 114.222 163.441C114.609 162.94 114.803 162.209 114.803 161.247C114.803 160.295 114.609 159.572 114.222 159.08C113.839 158.583 113.271 158.335 112.52 158.335C111.777 158.335 111.216 158.579 110.838 159.066C110.46 159.554 110.271 160.281 110.271 161.247ZM119.041 157.508V162.368C119.041 162.979 119.18 163.435 119.458 163.735C119.736 164.036 120.171 164.187 120.764 164.187C121.548 164.187 122.119 163.972 122.479 163.544C122.844 163.116 123.026 162.416 123.026 161.445V157.508H124.161V165H123.225L123.061 163.995H122.999C122.767 164.364 122.443 164.647 122.028 164.843C121.618 165.039 121.149 165.137 120.62 165.137C119.709 165.137 119.025 164.92 118.569 164.487C118.118 164.054 117.893 163.362 117.893 162.409V157.508H119.041ZM130.061 157.385C131.045 157.385 131.808 157.722 132.351 158.396C132.897 159.066 133.171 160.017 133.171 161.247C133.171 162.478 132.895 163.435 132.344 164.118C131.797 164.797 131.036 165.137 130.061 165.137C129.573 165.137 129.126 165.048 128.721 164.87C128.32 164.688 127.982 164.41 127.709 164.036H127.627L127.388 165H126.574V154.363H127.709V156.947C127.709 157.526 127.691 158.046 127.654 158.506H127.709C128.238 157.758 129.021 157.385 130.061 157.385ZM129.896 158.335C129.122 158.335 128.563 158.558 128.222 159.005C127.88 159.447 127.709 160.194 127.709 161.247C127.709 162.3 127.884 163.054 128.235 163.51C128.586 163.961 129.149 164.187 129.924 164.187C130.621 164.187 131.141 163.934 131.482 163.428C131.824 162.917 131.995 162.186 131.995 161.233C131.995 160.258 131.824 159.531 131.482 159.053C131.141 158.574 130.612 158.335 129.896 158.335ZM136.295 165H135.16V154.363H136.295V165ZM141.866 165.137C140.759 165.137 139.884 164.799 139.241 164.125C138.603 163.451 138.284 162.514 138.284 161.315C138.284 160.108 138.58 159.148 139.173 158.438C139.77 157.727 140.57 157.371 141.572 157.371C142.511 157.371 143.254 157.681 143.801 158.301C144.348 158.916 144.621 159.729 144.621 160.741V161.459H139.46C139.483 162.339 139.704 163.006 140.123 163.462C140.547 163.918 141.142 164.146 141.907 164.146C142.714 164.146 143.511 163.977 144.3 163.64V164.651C143.899 164.825 143.518 164.948 143.158 165.021C142.803 165.098 142.372 165.137 141.866 165.137ZM141.559 158.321C140.957 158.321 140.476 158.517 140.116 158.909C139.761 159.301 139.551 159.843 139.487 160.536H143.404C143.404 159.821 143.245 159.274 142.926 158.896C142.607 158.513 142.151 158.321 141.559 158.321ZM153.193 165.137C152.109 165.137 151.268 164.804 150.671 164.139C150.078 163.469 149.782 162.523 149.782 161.302C149.782 160.049 150.083 159.08 150.685 158.396C151.291 157.713 152.152 157.371 153.269 157.371C153.629 157.371 153.989 157.41 154.349 157.487C154.709 157.565 154.991 157.656 155.196 157.761L154.848 158.725C154.597 158.624 154.324 158.542 154.027 158.479C153.731 158.41 153.469 158.376 153.241 158.376C151.719 158.376 150.958 159.347 150.958 161.288C150.958 162.209 151.143 162.915 151.512 163.407C151.885 163.899 152.437 164.146 153.166 164.146C153.79 164.146 154.431 164.011 155.087 163.742V164.747C154.586 165.007 153.954 165.137 153.193 165.137ZM163.338 161.247C163.338 162.468 163.03 163.423 162.415 164.111C161.8 164.795 160.95 165.137 159.865 165.137C159.195 165.137 158.601 164.979 158.081 164.665C157.562 164.351 157.16 163.899 156.878 163.312C156.595 162.724 156.454 162.035 156.454 161.247C156.454 160.026 156.759 159.076 157.37 158.396C157.981 157.713 158.828 157.371 159.913 157.371C160.961 157.371 161.793 157.72 162.408 158.417C163.028 159.114 163.338 160.058 163.338 161.247ZM157.63 161.247C157.63 162.204 157.821 162.933 158.204 163.435C158.587 163.936 159.15 164.187 159.893 164.187C160.635 164.187 161.198 163.938 161.581 163.441C161.968 162.94 162.162 162.209 162.162 161.247C162.162 160.295 161.968 159.572 161.581 159.08C161.198 158.583 160.631 158.335 159.879 158.335C159.136 158.335 158.576 158.579 158.197 159.066C157.819 159.554 157.63 160.281 157.63 161.247ZM170.461 165V160.153C170.461 159.543 170.322 159.087 170.044 158.786C169.766 158.485 169.331 158.335 168.738 158.335C167.954 158.335 167.38 158.547 167.016 158.971C166.651 159.395 166.469 160.094 166.469 161.069V165H165.334V157.508H166.257L166.441 158.533H166.496C166.729 158.164 167.054 157.879 167.474 157.679C167.893 157.474 168.36 157.371 168.875 157.371C169.777 157.371 170.456 157.59 170.912 158.027C171.368 158.46 171.596 159.155 171.596 160.112V165H170.461ZM179.061 165V160.153C179.061 159.543 178.922 159.087 178.644 158.786C178.366 158.485 177.93 158.335 177.338 158.335C176.554 158.335 175.98 158.547 175.615 158.971C175.251 159.395 175.068 160.094 175.068 161.069V165H173.934V157.508H174.856L175.041 158.533H175.096C175.328 158.164 175.654 157.879 176.073 157.679C176.493 157.474 176.96 157.371 177.475 157.371C178.377 157.371 179.056 157.59 179.512 158.027C179.967 158.46 180.195 159.155 180.195 160.112V165H179.061ZM185.698 165.137C184.591 165.137 183.716 164.799 183.073 164.125C182.435 163.451 182.116 162.514 182.116 161.315C182.116 160.108 182.412 159.148 183.005 158.438C183.602 157.727 184.402 157.371 185.404 157.371C186.343 157.371 187.086 157.681 187.633 158.301C188.18 158.916 188.453 159.729 188.453 160.741V161.459H183.292C183.315 162.339 183.536 163.006 183.955 163.462C184.379 163.918 184.974 164.146 185.739 164.146C186.546 164.146 187.343 163.977 188.132 163.64V164.651C187.731 164.825 187.35 164.948 186.99 165.021C186.635 165.098 186.204 165.137 185.698 165.137ZM185.391 158.321C184.789 158.321 184.308 158.517 183.948 158.909C183.593 159.301 183.383 159.843 183.319 160.536H187.236C187.236 159.821 187.077 159.274 186.758 158.896C186.439 158.513 185.983 158.321 185.391 158.321ZM193.389 165.137C192.304 165.137 191.463 164.804 190.866 164.139C190.274 163.469 189.978 162.523 189.978 161.302C189.978 160.049 190.278 159.08 190.88 158.396C191.486 157.713 192.347 157.371 193.464 157.371C193.824 157.371 194.184 157.41 194.544 157.487C194.904 157.565 195.187 157.656 195.392 157.761L195.043 158.725C194.792 158.624 194.519 158.542 194.223 158.479C193.926 158.41 193.664 158.376 193.437 158.376C191.914 158.376 191.153 159.347 191.153 161.288C191.153 162.209 191.338 162.915 191.707 163.407C192.081 163.899 192.632 164.146 193.361 164.146C193.986 164.146 194.626 164.011 195.282 163.742V164.747C194.781 165.007 194.15 165.137 193.389 165.137ZM199.486 164.2C199.687 164.2 199.881 164.187 200.067 164.159C200.254 164.127 200.402 164.095 200.512 164.063V164.932C200.389 164.991 200.206 165.039 199.965 165.075C199.728 165.116 199.514 165.137 199.322 165.137C197.873 165.137 197.148 164.373 197.148 162.847V158.39H196.075V157.843L197.148 157.371L197.627 155.771H198.283V157.508H200.457V158.39H198.283V162.799C198.283 163.25 198.39 163.596 198.604 163.838C198.819 164.079 199.113 164.2 199.486 164.2ZM203.15 165H202.016V157.508H203.15V165ZM201.92 155.478C201.92 155.218 201.984 155.029 202.111 154.91C202.239 154.787 202.398 154.726 202.59 154.726C202.772 154.726 202.929 154.787 203.062 154.91C203.194 155.033 203.26 155.222 203.26 155.478C203.26 155.733 203.194 155.924 203.062 156.052C202.929 156.175 202.772 156.236 202.59 156.236C202.398 156.236 202.239 156.175 202.111 156.052C201.984 155.924 201.92 155.733 201.92 155.478ZM210.684 165V160.153C210.684 159.543 210.545 159.087 210.267 158.786C209.989 158.485 209.553 158.335 208.961 158.335C208.177 158.335 207.603 158.547 207.238 158.971C206.874 159.395 206.691 160.094 206.691 161.069V165H205.557V157.508H206.479L206.664 158.533H206.719C206.951 158.164 207.277 157.879 207.696 157.679C208.116 157.474 208.583 157.371 209.098 157.371C210 157.371 210.679 157.59 211.135 158.027C211.59 158.46 211.818 159.155 211.818 160.112V165H210.684ZM220.288 157.508V158.226L218.9 158.39C219.028 158.549 219.142 158.759 219.242 159.019C219.342 159.274 219.393 159.563 219.393 159.887C219.393 160.62 219.142 161.206 218.641 161.644C218.139 162.081 217.451 162.3 216.576 162.3C216.353 162.3 216.143 162.282 215.947 162.245C215.464 162.5 215.223 162.822 215.223 163.209C215.223 163.414 215.307 163.567 215.476 163.667C215.644 163.763 215.934 163.811 216.344 163.811H217.67C218.481 163.811 219.103 163.981 219.536 164.323C219.974 164.665 220.192 165.162 220.192 165.813C220.192 166.643 219.86 167.274 219.194 167.707C218.529 168.145 217.558 168.363 216.282 168.363C215.302 168.363 214.546 168.181 214.013 167.816C213.484 167.452 213.22 166.937 213.22 166.271C213.22 165.816 213.366 165.422 213.657 165.089C213.949 164.756 214.359 164.531 214.888 164.412C214.696 164.326 214.535 164.191 214.402 164.009C214.275 163.826 214.211 163.615 214.211 163.373C214.211 163.1 214.284 162.86 214.43 162.655C214.576 162.45 214.806 162.252 215.12 162.061C214.733 161.901 214.416 161.63 214.17 161.247C213.928 160.864 213.808 160.427 213.808 159.935C213.808 159.114 214.054 158.483 214.546 158.041C215.038 157.594 215.735 157.371 216.638 157.371C217.03 157.371 217.383 157.417 217.697 157.508H220.288ZM214.313 166.258C214.313 166.663 214.484 166.971 214.826 167.181C215.168 167.39 215.658 167.495 216.296 167.495C217.248 167.495 217.952 167.352 218.408 167.064C218.868 166.782 219.099 166.397 219.099 165.909C219.099 165.504 218.973 165.221 218.723 165.062C218.472 164.907 218 164.829 217.308 164.829H215.947C215.432 164.829 215.031 164.952 214.744 165.198C214.457 165.444 214.313 165.798 214.313 166.258ZM214.929 159.907C214.929 160.431 215.077 160.828 215.373 161.097C215.669 161.366 216.082 161.5 216.61 161.5C217.718 161.5 218.271 160.962 218.271 159.887C218.271 158.761 217.711 158.198 216.59 158.198C216.057 158.198 215.646 158.342 215.359 158.629C215.072 158.916 214.929 159.342 214.929 159.907ZM19.9609 184.2C20.1615 184.2 20.3551 184.187 20.542 184.159C20.7288 184.127 20.877 184.095 20.9863 184.063V184.932C20.8633 184.991 20.681 185.039 20.4395 185.075C20.2025 185.116 19.9883 185.137 19.7969 185.137C18.3477 185.137 17.623 184.373 17.623 182.847V178.39H16.5498V177.843L17.623 177.371L18.1016 175.771H18.7578V177.508H20.9316V178.39H18.7578V182.799C18.7578 183.25 18.8649 183.596 19.0791 183.838C19.2933 184.079 19.5872 184.2 19.9609 184.2ZM28.957 181.247C28.957 182.468 28.6494 183.423 28.0342 184.111C27.4189 184.795 26.569 185.137 25.4844 185.137C24.8145 185.137 24.2197 184.979 23.7002 184.665C23.1807 184.351 22.7796 183.899 22.4971 183.312C22.2145 182.724 22.0732 182.035 22.0732 181.247C22.0732 180.026 22.3786 179.076 22.9893 178.396C23.5999 177.713 24.4476 177.371 25.5322 177.371C26.5804 177.371 27.4121 177.72 28.0273 178.417C28.6471 179.114 28.957 180.058 28.957 181.247ZM23.249 181.247C23.249 182.204 23.4404 182.933 23.8232 183.435C24.2061 183.936 24.7689 184.187 25.5117 184.187C26.2546 184.187 26.8174 183.938 27.2002 183.441C27.5876 182.94 27.7812 182.209 27.7812 181.247C27.7812 180.295 27.5876 179.572 27.2002 179.08C26.8174 178.583 26.25 178.335 25.498 178.335C24.7552 178.335 24.1947 178.579 23.8164 179.066C23.4382 179.554 23.249 180.281 23.249 181.247ZM37.0098 184.2C37.2103 184.2 37.404 184.187 37.5908 184.159C37.7777 184.127 37.9258 184.095 38.0352 184.063V184.932C37.9121 184.991 37.7298 185.039 37.4883 185.075C37.2513 185.116 37.0371 185.137 36.8457 185.137C35.3965 185.137 34.6719 184.373 34.6719 182.847V178.39H33.5986V177.843L34.6719 177.371L35.1504 175.771H35.8066V177.508H37.9805V178.39H35.8066V182.799C35.8066 183.25 35.9137 183.596 36.1279 183.838C36.3421 184.079 36.6361 184.2 37.0098 184.2ZM44.666 185V180.153C44.666 179.543 44.527 179.087 44.249 178.786C43.971 178.485 43.5358 178.335 42.9434 178.335C42.1549 178.335 41.5785 178.549 41.2139 178.978C40.8538 179.406 40.6738 180.108 40.6738 181.083V185H39.5391V174.363H40.6738V177.583C40.6738 177.97 40.6556 178.292 40.6191 178.547H40.6875C40.9108 178.187 41.2275 177.904 41.6377 177.699C42.0524 177.49 42.5241 177.385 43.0527 177.385C43.9688 177.385 44.6546 177.604 45.1104 178.041C45.5706 178.474 45.8008 179.164 45.8008 180.112V185H44.666ZM51.3037 185.137C50.1963 185.137 49.3213 184.799 48.6787 184.125C48.0407 183.451 47.7217 182.514 47.7217 181.315C47.7217 180.108 48.0179 179.148 48.6104 178.438C49.2074 177.727 50.0072 177.371 51.0098 177.371C51.9486 177.371 52.6914 177.681 53.2383 178.301C53.7852 178.916 54.0586 179.729 54.0586 180.741V181.459H48.8975C48.9202 182.339 49.1413 183.006 49.5605 183.462C49.9844 183.918 50.5791 184.146 51.3447 184.146C52.1514 184.146 52.9489 183.977 53.7373 183.64V184.651C53.3363 184.825 52.9557 184.948 52.5957 185.021C52.2402 185.098 51.8096 185.137 51.3037 185.137ZM50.9961 178.321C50.3945 178.321 49.9137 178.517 49.5537 178.909C49.1982 179.301 48.9886 179.843 48.9248 180.536H52.8418C52.8418 179.821 52.6823 179.274 52.3633 178.896C52.0443 178.513 51.5885 178.321 50.9961 178.321ZM60.7715 185H59.6367V177.508H60.7715V185ZM59.541 175.478C59.541 175.218 59.6048 175.029 59.7324 174.91C59.86 174.787 60.0195 174.726 60.2109 174.726C60.3932 174.726 60.5505 174.787 60.6826 174.91C60.8148 175.033 60.8809 175.222 60.8809 175.478C60.8809 175.733 60.8148 175.924 60.6826 176.052C60.5505 176.175 60.3932 176.236 60.2109 176.236C60.0195 176.236 59.86 176.175 59.7324 176.052C59.6048 175.924 59.541 175.733 59.541 175.478ZM68.3047 185V180.153C68.3047 179.543 68.1657 179.087 67.8877 178.786C67.6097 178.485 67.1745 178.335 66.582 178.335C65.7982 178.335 65.224 178.547 64.8594 178.971C64.4948 179.395 64.3125 180.094 64.3125 181.069V185H63.1777V177.508H64.1006L64.2852 178.533H64.3398C64.5723 178.164 64.8981 177.879 65.3174 177.679C65.7367 177.474 66.2038 177.371 66.7188 177.371C67.6211 177.371 68.3001 177.59 68.7559 178.027C69.2116 178.46 69.4395 179.155 69.4395 180.112V185H68.3047ZM74.1973 184.2C74.3978 184.2 74.5915 184.187 74.7783 184.159C74.9652 184.127 75.1133 184.095 75.2227 184.063V184.932C75.0996 184.991 74.9173 185.039 74.6758 185.075C74.4388 185.116 74.2246 185.137 74.0332 185.137C72.584 185.137 71.8594 184.373 71.8594 182.847V178.39H70.7861V177.843L71.8594 177.371L72.3379 175.771H72.9941V177.508H75.168V178.39H72.9941V182.799C72.9941 183.25 73.1012 183.596 73.3154 183.838C73.5296 184.079 73.8236 184.2 74.1973 184.2ZM79.8916 185.137C78.7842 185.137 77.9092 184.799 77.2666 184.125C76.6286 183.451 76.3096 182.514 76.3096 181.315C76.3096 180.108 76.6058 179.148 77.1982 178.438C77.7952 177.727 78.5951 177.371 79.5977 177.371C80.5365 177.371 81.2793 177.681 81.8262 178.301C82.373 178.916 82.6465 179.729 82.6465 180.741V181.459H77.4854C77.5081 182.339 77.7292 183.006 78.1484 183.462C78.5723 183.918 79.167 184.146 79.9326 184.146C80.7393 184.146 81.5368 183.977 82.3252 183.64V184.651C81.9242 184.825 81.5436 184.948 81.1836 185.021C80.8281 185.098 80.3975 185.137 79.8916 185.137ZM79.584 178.321C78.9824 178.321 78.5016 178.517 78.1416 178.909C77.7861 179.301 77.5765 179.843 77.5127 180.536H81.4297C81.4297 179.821 81.2702 179.274 80.9512 178.896C80.6322 178.513 80.1764 178.321 79.584 178.321ZM88.0059 177.371C88.3385 177.371 88.637 177.398 88.9014 177.453L88.7441 178.506C88.4342 178.438 88.1608 178.403 87.9238 178.403C87.3177 178.403 86.7982 178.649 86.3652 179.142C85.9368 179.634 85.7227 180.247 85.7227 180.98V185H84.5879V177.508H85.5244L85.6543 178.896H85.709C85.987 178.408 86.3219 178.032 86.7139 177.768C87.1058 177.503 87.5365 177.371 88.0059 177.371ZM95.4297 185V180.153C95.4297 179.543 95.2907 179.087 95.0127 178.786C94.7347 178.485 94.2995 178.335 93.707 178.335C92.9232 178.335 92.349 178.547 91.9844 178.971C91.6198 179.395 91.4375 180.094 91.4375 181.069V185H90.3027V177.508H91.2256L91.4102 178.533H91.4648C91.6973 178.164 92.0231 177.879 92.4424 177.679C92.8617 177.474 93.3288 177.371 93.8438 177.371C94.7461 177.371 95.4251 177.59 95.8809 178.027C96.3366 178.46 96.5645 179.155 96.5645 180.112V185H95.4297ZM102.067 185.137C100.96 185.137 100.085 184.799 99.4424 184.125C98.8044 183.451 98.4854 182.514 98.4854 181.315C98.4854 180.108 98.7816 179.148 99.374 178.438C99.971 177.727 100.771 177.371 101.773 177.371C102.712 177.371 103.455 177.681 104.002 178.301C104.549 178.916 104.822 179.729 104.822 180.741V181.459H99.6611C99.6839 182.339 99.9049 183.006 100.324 183.462C100.748 183.918 101.343 184.146 102.108 184.146C102.915 184.146 103.713 183.977 104.501 183.64V184.651C104.1 184.825 103.719 184.948 103.359 185.021C103.004 185.098 102.573 185.137 102.067 185.137ZM101.76 178.321C101.158 178.321 100.677 178.517 100.317 178.909C99.9619 179.301 99.7523 179.843 99.6885 180.536H103.605C103.605 179.821 103.446 179.274 103.127 178.896C102.808 178.513 102.352 178.321 101.76 178.321ZM109.184 184.2C109.384 184.2 109.578 184.187 109.765 184.159C109.951 184.127 110.1 184.095 110.209 184.063V184.932C110.086 184.991 109.904 185.039 109.662 185.075C109.425 185.116 109.211 185.137 109.02 185.137C107.57 185.137 106.846 184.373 106.846 182.847V178.39H105.772V177.843L106.846 177.371L107.324 175.771H107.98V177.508H110.154V178.39H107.98V182.799C107.98 183.25 108.088 183.596 108.302 183.838C108.516 184.079 108.81 184.2 109.184 184.2ZM111.549 184.275C111.549 183.97 111.617 183.74 111.754 183.585C111.895 183.425 112.096 183.346 112.355 183.346C112.62 183.346 112.825 183.425 112.971 183.585C113.121 183.74 113.196 183.97 113.196 184.275C113.196 184.572 113.121 184.799 112.971 184.959C112.82 185.118 112.615 185.198 112.355 185.198C112.123 185.198 111.929 185.128 111.774 184.986C111.624 184.84 111.549 184.604 111.549 184.275ZM122.329 185H121.167V176.038H118.002V175.006H125.494V176.038H122.329V185ZM130.252 177.371C130.585 177.371 130.883 177.398 131.147 177.453L130.99 178.506C130.68 178.438 130.407 178.403 130.17 178.403C129.564 178.403 129.044 178.649 128.611 179.142C128.183 179.634 127.969 180.247 127.969 180.98V185H126.834V177.508H127.771L127.9 178.896H127.955C128.233 178.408 128.568 178.032 128.96 177.768C129.352 177.503 129.783 177.371 130.252 177.371ZM131.359 177.508H132.576L134.217 181.78C134.577 182.756 134.8 183.46 134.887 183.893H134.941C135.001 183.66 135.124 183.264 135.311 182.703C135.502 182.138 136.122 180.406 137.17 177.508H138.387L135.167 186.039C134.848 186.882 134.474 187.479 134.046 187.83C133.622 188.186 133.1 188.363 132.48 188.363C132.134 188.363 131.792 188.325 131.455 188.247V187.338C131.706 187.393 131.986 187.42 132.296 187.42C133.075 187.42 133.631 186.982 133.964 186.107L134.381 185.041L131.359 177.508ZM147.848 185L147.622 183.934H147.567C147.194 184.403 146.82 184.722 146.446 184.891C146.077 185.055 145.615 185.137 145.059 185.137C144.316 185.137 143.732 184.945 143.309 184.562C142.889 184.18 142.68 183.635 142.68 182.929C142.68 181.416 143.89 180.623 146.31 180.55L147.581 180.509V180.044C147.581 179.456 147.453 179.023 147.198 178.745C146.948 178.463 146.544 178.321 145.988 178.321C145.364 178.321 144.658 178.513 143.869 178.896L143.521 178.027C143.89 177.827 144.293 177.67 144.73 177.556C145.173 177.442 145.615 177.385 146.057 177.385C146.95 177.385 147.611 177.583 148.039 177.979C148.472 178.376 148.688 179.012 148.688 179.887V185H147.848ZM145.284 184.2C145.991 184.2 146.544 184.007 146.945 183.619C147.351 183.232 147.554 182.689 147.554 181.992V181.315L146.419 181.363C145.517 181.395 144.865 181.536 144.464 181.787C144.067 182.033 143.869 182.418 143.869 182.942C143.869 183.353 143.992 183.665 144.238 183.879C144.489 184.093 144.838 184.2 145.284 184.2ZM157.165 177.508V178.226L155.777 178.39C155.905 178.549 156.019 178.759 156.119 179.019C156.219 179.274 156.27 179.563 156.27 179.887C156.27 180.62 156.019 181.206 155.518 181.644C155.016 182.081 154.328 182.3 153.453 182.3C153.23 182.3 153.02 182.282 152.824 182.245C152.341 182.5 152.1 182.822 152.1 183.209C152.1 183.414 152.184 183.567 152.353 183.667C152.521 183.763 152.811 183.811 153.221 183.811H154.547C155.358 183.811 155.98 183.981 156.413 184.323C156.851 184.665 157.069 185.162 157.069 185.813C157.069 186.643 156.737 187.274 156.071 187.707C155.406 188.145 154.435 188.363 153.159 188.363C152.179 188.363 151.423 188.181 150.89 187.816C150.361 187.452 150.097 186.937 150.097 186.271C150.097 185.816 150.243 185.422 150.534 185.089C150.826 184.756 151.236 184.531 151.765 184.412C151.573 184.326 151.411 184.191 151.279 184.009C151.152 183.826 151.088 183.615 151.088 183.373C151.088 183.1 151.161 182.86 151.307 182.655C151.452 182.45 151.683 182.252 151.997 182.061C151.61 181.901 151.293 181.63 151.047 181.247C150.805 180.864 150.685 180.427 150.685 179.935C150.685 179.114 150.931 178.483 151.423 178.041C151.915 177.594 152.612 177.371 153.515 177.371C153.907 177.371 154.26 177.417 154.574 177.508H157.165ZM151.19 186.258C151.19 186.663 151.361 186.971 151.703 187.181C152.045 187.39 152.535 187.495 153.173 187.495C154.125 187.495 154.829 187.352 155.285 187.064C155.745 186.782 155.976 186.397 155.976 185.909C155.976 185.504 155.85 185.221 155.6 185.062C155.349 184.907 154.877 184.829 154.185 184.829H152.824C152.309 184.829 151.908 184.952 151.621 185.198C151.334 185.444 151.19 185.798 151.19 186.258ZM151.806 179.907C151.806 180.431 151.954 180.828 152.25 181.097C152.546 181.366 152.959 181.5 153.487 181.5C154.595 181.5 155.148 180.962 155.148 179.887C155.148 178.761 154.588 178.198 153.467 178.198C152.934 178.198 152.523 178.342 152.236 178.629C151.949 178.916 151.806 179.342 151.806 179.907ZM163.311 185L163.085 183.934H163.03C162.657 184.403 162.283 184.722 161.909 184.891C161.54 185.055 161.077 185.137 160.521 185.137C159.779 185.137 159.195 184.945 158.771 184.562C158.352 184.18 158.143 183.635 158.143 182.929C158.143 181.416 159.353 180.623 161.772 180.55L163.044 180.509V180.044C163.044 179.456 162.916 179.023 162.661 178.745C162.41 178.463 162.007 178.321 161.451 178.321C160.827 178.321 160.12 178.513 159.332 178.896L158.983 178.027C159.353 177.827 159.756 177.67 160.193 177.556C160.635 177.442 161.077 177.385 161.52 177.385C162.413 177.385 163.074 177.583 163.502 177.979C163.935 178.376 164.151 179.012 164.151 179.887V185H163.311ZM160.747 184.2C161.453 184.2 162.007 184.007 162.408 183.619C162.814 183.232 163.017 182.689 163.017 181.992V181.315L161.882 181.363C160.979 181.395 160.328 181.536 159.927 181.787C159.53 182.033 159.332 182.418 159.332 182.942C159.332 183.353 159.455 183.665 159.701 183.879C159.952 184.093 160.3 184.2 160.747 184.2ZM167.631 185H166.496V177.508H167.631V185ZM166.4 175.478C166.4 175.218 166.464 175.029 166.592 174.91C166.719 174.787 166.879 174.726 167.07 174.726C167.253 174.726 167.41 174.787 167.542 174.91C167.674 175.033 167.74 175.222 167.74 175.478C167.74 175.733 167.674 175.924 167.542 176.052C167.41 176.175 167.253 176.236 167.07 176.236C166.879 176.236 166.719 176.175 166.592 176.052C166.464 175.924 166.4 175.733 166.4 175.478ZM175.164 185V180.153C175.164 179.543 175.025 179.087 174.747 178.786C174.469 178.485 174.034 178.335 173.441 178.335C172.658 178.335 172.083 178.547 171.719 178.971C171.354 179.395 171.172 180.094 171.172 181.069V185H170.037V177.508H170.96L171.145 178.533H171.199C171.432 178.164 171.757 177.879 172.177 177.679C172.596 177.474 173.063 177.371 173.578 177.371C174.48 177.371 175.16 177.59 175.615 178.027C176.071 178.46 176.299 179.155 176.299 180.112V185H175.164ZM183.408 185H182.273V174.363H183.408V185ZM190.422 185L190.196 183.934H190.142C189.768 184.403 189.394 184.722 189.021 184.891C188.651 185.055 188.189 185.137 187.633 185.137C186.89 185.137 186.307 184.945 185.883 184.562C185.464 184.18 185.254 183.635 185.254 182.929C185.254 181.416 186.464 180.623 188.884 180.55L190.155 180.509V180.044C190.155 179.456 190.028 179.023 189.772 178.745C189.522 178.463 189.118 178.321 188.562 178.321C187.938 178.321 187.232 178.513 186.443 178.896L186.095 178.027C186.464 177.827 186.867 177.67 187.305 177.556C187.747 177.442 188.189 177.385 188.631 177.385C189.524 177.385 190.185 177.583 190.613 177.979C191.046 178.376 191.263 179.012 191.263 179.887V185H190.422ZM187.858 184.2C188.565 184.2 189.118 184.007 189.52 183.619C189.925 183.232 190.128 182.689 190.128 181.992V181.315L188.993 181.363C188.091 181.395 187.439 181.536 187.038 181.787C186.642 182.033 186.443 182.418 186.443 182.942C186.443 183.353 186.566 183.665 186.812 183.879C187.063 184.093 187.412 184.2 187.858 184.2ZM196.027 184.2C196.228 184.2 196.422 184.187 196.608 184.159C196.795 184.127 196.943 184.095 197.053 184.063V184.932C196.93 184.991 196.747 185.039 196.506 185.075C196.269 185.116 196.055 185.137 195.863 185.137C194.414 185.137 193.689 184.373 193.689 182.847V178.39H192.616V177.843L193.689 177.371L194.168 175.771H194.824V177.508H196.998V178.39H194.824V182.799C194.824 183.25 194.931 183.596 195.146 183.838C195.36 184.079 195.654 184.2 196.027 184.2ZM201.722 185.137C200.614 185.137 199.739 184.799 199.097 184.125C198.459 183.451 198.14 182.514 198.14 181.315C198.14 180.108 198.436 179.148 199.028 178.438C199.625 177.727 200.425 177.371 201.428 177.371C202.367 177.371 203.109 177.681 203.656 178.301C204.203 178.916 204.477 179.729 204.477 180.741V181.459H199.315C199.338 182.339 199.559 183.006 199.979 183.462C200.402 183.918 200.997 184.146 201.763 184.146C202.569 184.146 203.367 183.977 204.155 183.64V184.651C203.754 184.825 203.374 184.948 203.014 185.021C202.658 185.098 202.228 185.137 201.722 185.137ZM201.414 178.321C200.812 178.321 200.332 178.517 199.972 178.909C199.616 179.301 199.407 179.843 199.343 180.536H203.26C203.26 179.821 203.1 179.274 202.781 178.896C202.462 178.513 202.007 178.321 201.414 178.321ZM209.836 177.371C210.169 177.371 210.467 177.398 210.731 177.453L210.574 178.506C210.264 178.438 209.991 178.403 209.754 178.403C209.148 178.403 208.628 178.649 208.195 179.142C207.767 179.634 207.553 180.247 207.553 180.98V185H206.418V177.508H207.354L207.484 178.896H207.539C207.817 178.408 208.152 178.032 208.544 177.768C208.936 177.503 209.367 177.371 209.836 177.371ZM211.969 184.275C211.969 183.97 212.037 183.74 212.174 183.585C212.315 183.425 212.516 183.346 212.775 183.346C213.04 183.346 213.245 183.425 213.391 183.585C213.541 183.74 213.616 183.97 213.616 184.275C213.616 184.572 213.541 184.799 213.391 184.959C213.24 185.118 213.035 185.198 212.775 185.198C212.543 185.198 212.349 185.128 212.194 184.986C212.044 184.84 211.969 184.604 211.969 184.275Z" fill="#2B273C"/>
</svg>
